<svg xmlns="http://www.w3.org/2000/svg" width="38" height="42" viewBox="0 0 38 42">
    <g fill="none" fill-rule="evenodd">
        <path fill="#FF5C00" d="M36.132 25.227c-.9 2.205-2.167 4.12-3.8 5.749-1.634 1.628-3.602 2.904-5.904 3.827-2.302.924-4.857 1.386-7.662 1.386-2.807 0-5.364-.462-7.674-1.386-2.312-.923-4.287-2.2-5.93-3.827-1.642-1.63-2.913-3.544-3.812-5.749C.45 23.024 0 20.642 0 18.082c0-2.56.45-4.942 1.35-7.145.899-2.203 2.17-4.115 3.812-5.736 1.643-1.62 3.618-2.892 5.93-3.816C13.402.462 15.959 0 18.766 0c2.805 0 5.36.466 7.662 1.397 2.302.932 4.27 2.208 5.904 3.829 1.633 1.62 2.9 3.532 3.8 5.735.9 2.204 1.35 4.578 1.35 7.121 0 2.56-.45 4.942-1.35 7.145zM32.311 40.712c0 .357-6.075.646-13.57.646S5.17 41.07 5.17 40.712c0-.357 6.076-.646 13.57-.646 7.496 0 13.571.29 13.571.646"/>
        <g fill="#FFF" fill-rule="nonzero">
            <path d="M15.294 2.844l.026.002c.015 0 .03-.002.045-.004.393.008.707.328.708.72 0 .18.144.324.323.324.179 0 .323-.145.323-.323 0-.642-.448-1.197-1.076-1.335v-.31c0-.179-.145-.324-.323-.324-.179 0-.323.145-.323.323v.325c-.664.177-1.094.819-1.004 1.499.09.68.67 1.189 1.357 1.189.4 0 .723.323.723.721 0 .399-.324.722-.723.722-.399 0-.722-.323-.722-.722 0-.178-.145-.322-.324-.322-.178 0-.323.144-.323.322 0 .62.417 1.16 1.016 1.321v.354c0 .178.144.323.323.323.178 0 .323-.145.323-.323v-.34c.683-.148 1.144-.788 1.068-1.482-.075-.694-.662-1.22-1.36-1.22-.389 0-.708-.305-.723-.692-.015-.387.279-.717.666-.747z" transform="translate(9 9)"/>
            <path d="M15.369.016c-1.99 0-3.687 1.296-4.323 3.031H3.019c-.177 0-.322.16-.323.338L2.62 14.712H.332c-.179 0-.332.13-.332.308v1.437c.004 1.353 1.071 2.465 2.425 2.526v.007h9.985v-.01c.08.004.114.01.165.01h.007c1.401-.002 2.536-1.137 2.536-2.536V9.187c.08.004.166.006.25.006 2.531 0 4.592-2.06 4.592-4.589 0-2.527-2.06-4.588-4.591-4.588zM2.549 18.345h-.003c-1.046-.002-1.895-.846-1.9-1.891v-1.096h9.379v1.091c0 .674.27 1.32.748 1.795.034.034.076.06.112.1H2.548zm11.922-1.891c0 1.043-.845 1.888-1.89 1.89h-.006c-1.048-.001-1.898-.848-1.904-1.894v-1.43c.003-.083-.029-.163-.087-.221-.059-.058-.139-.09-.221-.087H3.266l.075-11.019h7.525c-.057.296-.087.596-.089.897 0 .637.133 1.266.39 1.848H8.114c-.178 0-.323.144-.323.323 0 .178.145.323.323.323h3.406c.667 1.047 1.733 1.777 2.952 2.022v7.348zm.898-7.906c-2.179 0-3.945-1.764-3.945-3.939S13.19.671 15.37.671c2.178 0 3.944 1.763 3.944 3.938-.002 2.174-1.767 3.936-3.944 3.939z" transform="translate(9 9)"/>
            <path d="M6.038 8.587c-.571 0-1.035.449-1.035 1 0 .552.464 1.001 1.035 1.001.57 0 1.035-.449 1.035-1 0-.552-.464-1.001-1.035-1.001zm0 1.355c-.215 0-.389-.159-.389-.355 0-.195.175-.354.389-.354.214 0 .388.159.388.354 0 .196-.174.355-.388.355zM7.79 9.586c0 .178.145.323.323.323h4.312c.178 0 .323-.145.323-.323 0-.178-.145-.323-.323-.323H8.113c-.178 0-.323.145-.323.323zM6.038 5.78c-.571 0-1.035.449-1.035 1 0 .553.464 1.001 1.035 1.001.57 0 1.035-.448 1.035-1S6.609 5.78 6.038 5.78zm0 1.356c-.215 0-.389-.16-.389-.355 0-.196.175-.355.389-.355.214 0 .388.159.388.355 0 .195-.174.355-.388.355zM6.038 11.393c-.571 0-1.035.45-1.035 1.001 0 .552.464 1 1.035 1 .57 0 1.035-.448 1.035-1s-.464-1-1.035-1zm0 1.356c-.215 0-.389-.16-.389-.355 0-.196.175-.355.389-.355.214 0 .388.16.388.355 0 .196-.174.355-.388.355zM12.425 12.088H8.113c-.178 0-.323.145-.323.323 0 .179.145.323.323.323h4.312c.178 0 .323-.144.323-.323 0-.178-.145-.323-.323-.323z" transform="translate(9 9)"/>
        </g>
    </g>
</svg>
