<svg xmlns="http://www.w3.org/2000/svg" width="18" height="31" viewBox="0 0 18 31">
    <g fill="#02979B">
        <path d="M18 2.464C18 1.104 16.897 0 15.536 0H2.464C1.104 0 0 1.103 0 2.464v25.47C0 29.295 1.103 30.4 2.464 30.4h13.072c1.36 0 2.464-1.104 2.464-2.465V2.464zM9.804 26.996c0 .444-.36.804-.804.804-.444 0-.804-.36-.804-.804 0-.444.36-.804.804-.804.444 0 .803.36.804.804zm.2-2.62l-.312-.56-.001-.002-1.77-3.177c.287-.176.66-.12.883.131l.642.737c.138.158.36.214.557.14.196-.073.327-.261.326-.471 0-1.805-.001-4.16.002-5.368 0-.11.104-.134.165-.134h.247c.083 0 .166.038.167.134 0 .292-.018 4.215-.018 4.255 0 .022-.004.041-.004.063v.206c0 .278.226.504.504.504s.503-.226.503-.504v-1.21c0-.033.042-.05.074-.05h.502c.014-.002.028.003.039.012.01.01.015.024.014.038v1.604c0 .278.226.503.504.503s.503-.225.503-.503v-1.21c.005-.036.034-.064.07-.066h.498c.034.003.06.031.062.066v1.21c0 .278.225.503.503.503s.504-.225.504-.503v-.181c-.004-.047.01-.094.038-.131.019-.018.044-.026.07-.023l.263.001c.043-.002.085.013.116.043s.049.07.05.113c.002 1.037.002 1.056.001 1.565l-.002 1.453c0 .923-.747 1.67-1.669 1.674h-2.574c-.606-.002-1.163-.332-1.457-.861zm-3.79-6.565c-.266-.002-.52-.118-.696-.317-.152-.169-.224-.393-.199-.618l.638-5.547h.526v1.308c0 .278.225.503.503.503s.504-.225.504-.503v-1.308h3.146v1.308c0 .278.226.503.504.503s.503-.225.503-.503v-1.308h.434l.638 5.54c.024.222-.048.444-.199.61-.156.172-.372.279-.604.299.003-.94.005-1.836.004-1.973 0-.642-.516-1.14-1.172-1.14h-.247c-.309-.005-.607.114-.827.33-.22.217-.345.513-.346.822l-.002 1.994H6.215zm4.422-7.49H7.49v-.488c0-.806.707-1.46 1.573-1.46s1.573.654 1.573 1.46v.489zm6.075 10.223c-.005-.644-.529-1.162-1.172-1.16l-.264-.001c-.04 0-.079-.002-.117.002-.065-.537-.519-.942-1.06-.944h-.497c-.093 0-.185.014-.275.04-.055-.074-.12-.14-.193-.197.048-.043.092-.088.135-.135.34-.38.503-.886.447-1.393l-.689-5.986c-.029-.255-.244-.448-.5-.448h-.883v-.49c0-1.36-1.159-2.467-2.58-2.467-1.422 0-2.58 1.107-2.58 2.468v.489h-.975c-.257 0-.472.193-.5.448l-.69 5.985c-.055.511.107 1.023.448 1.408.368.414.895.652 1.449.655h3.107v1.077c-.632-.487-1.516-.472-2.13.037l-.23.173c-.198.149-.255.42-.133.636l1.563 2.797H1.007V5.916h15.986v17.622h-.282c0-.755.002-1.162.002-1.43.001-.512.001-.525-.002-1.564zM2.464 1.007h13.072c.804 0 1.457.674 1.457 1.478v2.424H1.007V2.485c0-.804.653-1.478 1.457-1.478zm13.072 28.448H2.464c-.804 0-1.457-.675-1.457-1.478v-3.432h7.946l.171.315c.07.126.15.246.24.359-.751-.155-1.518.18-1.916.836-.397.655-.34 1.49.145 2.084.484.594 1.29.82 2.012.563.722-.256 1.205-.94 1.206-1.706 0-.32-.085-.633-.246-.908.288.103.59.156.896.157h2.574c1.1 0 2.086-.675 2.484-1.7h.474v3.432c0 .803-.653 1.478-1.457 1.478z"/>
        <path d="M6.876 3.336h4.248c.278 0 .504-.226.504-.504s-.226-.503-.504-.503H6.876c-.278 0-.504.225-.504.503s.226.504.504.504z"/>
    </g>
</svg>
