<svg xmlns="http://www.w3.org/2000/svg" width="13" height="13" viewBox="0 0 13 13">
    <g fill="none" fill-rule="evenodd">
        <g fill="#41AA36" fill-rule="nonzero">
            <g>
                <g>
                    <g>
                        <path d="M9.373 4.438c.199.198.199.52 0 .718L5.967 8.562c-.199.199-.52.199-.719 0L3.627 6.941c-.199-.199-.199-.52 0-.718.198-.199.52-.199.718 0l1.262 1.262 3.048-3.047c.198-.199.52-.199.718 0zM13 6.5c0 3.593-2.908 6.5-6.5 6.5C2.907 13 0 10.092 0 6.5 0 2.907 2.908 0 6.5 0 10.093 0 13 2.908 13 6.5zm-1.016 0c0-3.032-2.453-5.484-5.484-5.484-3.032 0-5.484 2.453-5.484 5.484 0 3.032 2.453 5.484 5.484 5.484 3.032 0 5.484-2.453 5.484-5.484z" transform="translate(-208 -1163) translate(208 1157) translate(0 6)"/>
                    </g>
                </g>
            </g>
        </g>
    </g>
</svg>
