<svg xmlns="http://www.w3.org/2000/svg" width="70" height="70" viewBox="0 0 70 70">
    <g fill="#B1DC03" fill-rule="evenodd" stroke="#B1DC03" stroke-width="2">
        <path d="M66.247 8.76c-1.008-1.012-2.642-1.013-3.649-.005l-30.952 30.93-11.168-12.152c-.965-1.05-2.596-1.118-3.645-.15-1.049.966-1.116 2.601-.151 3.652l12.987 14.13c.475.519 1.14.82 1.843.834l.055.001c.682 0 1.338-.271 1.821-.754l32.853-32.83c1.01-1.009 1.012-2.646.006-3.657z" transform="translate(1 1)"/>
        <path d="M65.437 31.437c-1.415 0-2.563 1.147-2.563 2.563 0 15.922-12.952 28.874-28.874 28.874C18.079 62.874 5.126 49.922 5.126 34 5.126 18.079 18.079 5.126 34 5.126c1.416 0 2.563-1.148 2.563-2.563C36.563 1.147 35.416 0 34 0 15.252 0 0 15.252 0 34c0 18.747 15.252 34 34 34 18.747 0 34-15.253 34-34 0-1.416-1.147-2.563-2.563-2.563z" transform="translate(1 1)"/>
    </g>
</svg>
