<svg xmlns="http://www.w3.org/2000/svg" width="50" height="50" viewBox="0 0 50 50">
    <g fill="none" fill-rule="evenodd">
        <g fill-rule="nonzero">
            <g>
                <g fill="#6C3">
                    <path d="M24.942 0c13.775 0 24.941 11.168 24.941 24.942 0 13.775-11.166 24.941-24.941 24.941C11.166 49.883 0 38.717 0 24.942 0 11.168 11.166 0 24.942 0z" transform="translate(-1341 -2931) translate(1341 2931)"/>
                </g>
                <g fill="#FFF">
                    <path d="M1.902 7.977c-.45.429-1.161.412-1.59-.037-.43-.45-.413-1.161.036-1.59L6.67.31C7.104-.103 7.787-.104 8.222.31l6.35 6.038c.45.428.467 1.14.04 1.59-.43.45-1.141.469-1.591.04L7.449 2.68 1.902 7.977z" transform="translate(-1341 -2931) translate(1341 2931) translate(18 17)"/>
                    <path d="M1.902 12.864c-.45.429-1.161.412-1.59-.037-.43-.45-.413-1.161.036-1.59L6.67 5.197c.434-.414 1.117-.415 1.552-.001l6.35 6.038c.45.428.467 1.14.04 1.59-.43.45-1.141.468-1.591.04L7.449 7.566l-5.547 5.298z" transform="translate(-1341 -2931) translate(1341 2931) translate(18 17)"/>
                </g>
            </g>
        </g>
    </g>
</svg>
