<svg xmlns="http://www.w3.org/2000/svg" width="37" height="42" viewBox="0 0 37 42">
    <defs>
        <linearGradient id="n610vgeloa" x1="0%" x2="100%" y1="54.648%" y2="54.648%">
            <stop offset="0%" stop-color="#CAD80B"/>
            <stop offset="100%" stop-color="#6EBD06"/>
        </linearGradient>
    </defs>
    <g fill="none" fill-rule="evenodd">
        <g fill="url(#n610vgeloa)" transform="translate(-286 -3304)">
            <g>
                <path d="M96.209 37.454l.566 6.975-5.851 1.852-.727-7.054 6.012-1.773zm-.815 1.187l-4.217 1.244.535 5.194 4.1-1.297-.418-5.141zm-10.724-.988l4.776 1.393.75 7.494-4.829-1.425-.697-7.462zm1.028 1.245l.515 5.52 2.946.87-.555-5.543-2.906-.847zm-1.027-2.041L90.905 35l5.04 1.459-6.333 1.956-4.941-1.558zm3.095.025l1.849.583 3.164-.978-1.87-.541-3.143.936zm.851 10.62L96.543 61.1l-10.38 9.285-8.258-13.63 10.712-9.252zm-.234 1.401l-9.304 8.037 7.293 12.039 9.014-8.063-7.003-12.013zm-.595-2.13L77.64 55.957l-11.143 1.758 10.712-9.451 10.579-1.493zm-2.802 1.311l-7.38 1.041-8.17 7.21 7.795-1.23 7.755-7.02zM66 59.11l11.308-1.924 8.158 13.431-11.308 2.09L66 59.109zm1.462.672l7.15 11.918 9.395-1.736-7.155-11.78-9.39 1.598zm30.175 8.15l-1.79-4.51 4.791 3.498 1.758 4.61-4.76-3.599zm.75-.572l2.034 1.538-.535-1.404-2.036-1.486.537 1.352zm-3.17-3.939l1.723 4.311-5.173 4.66-1.592-4.428 5.041-4.543zm-.36 1.546l-3.621 3.264.928 2.581 3.699-3.33-1.006-2.515zm-2.493 8.32l4.966-4.643 4.966 3.631L97.156 77l-4.792-3.714zm1.398-.065l3.344 2.592 3.762-3.459-3.467-2.535-3.639 3.402z" transform="translate(220 3269)"/>
            </g>
        </g>
    </g>
</svg>
