<svg xmlns="http://www.w3.org/2000/svg" width="38" height="42" viewBox="0 0 38 42">
    <g fill="none" fill-rule="evenodd">
        <g fill="#B2DD00">
            <path d="M36.132 25.227c-.9 2.205-2.167 4.12-3.8 5.749-1.634 1.628-3.602 2.904-5.904 3.827-2.302.924-4.857 1.386-7.662 1.386-2.807 0-5.364-.462-7.674-1.386-2.312-.923-4.287-2.2-5.93-3.827-1.642-1.63-2.913-3.544-3.812-5.749C.45 23.024 0 20.642 0 18.082c0-2.56.45-4.942 1.35-7.145.899-2.203 2.17-4.115 3.812-5.736 1.643-1.62 3.618-2.892 5.93-3.816C13.402.462 15.959 0 18.766 0c2.805 0 5.36.466 7.662 1.397 2.302.932 4.27 2.208 5.904 3.829 1.633 1.62 2.9 3.532 3.8 5.735.9 2.204 1.35 4.578 1.35 7.121 0 2.56-.45 4.942-1.35 7.145zM32.311 40.712c0 .357-6.075.646-13.57.646S5.17 41.07 5.17 40.712c0-.357 6.076-.646 13.57-.646 7.496 0 13.571.29 13.571.646"/>
        </g>
        <g fill="#FFF">
            <path d="M6.9 8.655h6.162c.334 0 .645-.151.85-.415.207-.264.279-.602.198-.927l-.46-1.845c-.221-.885-.882-1.563-1.715-1.826.247-.372.392-.817.392-1.296C12.327 1.052 11.274 0 9.98 0 8.687 0 7.634 1.052 7.634 2.346c0 .479.145.924.392 1.296-.833.263-1.494.941-1.714 1.826l-.46 1.846c-.082.324-.01.662.196.926.206.264.517.415.851.415zM9.98 1.17c.65 0 1.177.527 1.177 1.176 0 .649-.528 1.177-1.176 1.177-.65 0-1.177-.528-1.177-1.177S9.332 1.17 9.981 1.17zM7.447 5.75c.156-.623.713-1.058 1.355-1.058h2.359c.642 0 1.2.435 1.355 1.059l.432 1.734H7.014l.432-1.734z" transform="translate(9 9)"/>
            <path d="M19.946 5.933c-.002-.891-.67-1.65-1.552-1.765-.51-.066-1.022.09-1.408.429-.385.338-.606.827-.606 1.34v2.841l-.111-.003c-.462 0-.896.18-1.223.506l-1.533 1.533c-.015.015-.036.022-.056.02l-.032-.003-.688-.04c-.57-.061-1.13.136-1.537.543l-.948.948c-.099.099-.189.203-.271.313-.083-.11-.173-.214-.272-.313l-.948-.948c-.407-.407-.966-.604-1.537-.544l-.688.041-.031.003c-.022.002-.042-.005-.057-.02L4.915 9.281c-.327-.326-.76-.506-1.223-.506-.037 0-.074.001-.11.003V5.937c0-.513-.222-1.002-.607-1.34-.386-.339-.899-.495-1.407-.429-.884.115-1.551.874-1.553 1.765L0 12.378c-.002.673.27 1.33.746 1.806l3.737 3.738v1.064c0 .538.438.975.975.975h4.133c.138 0 .27-.03.39-.082.119.053.25.082.39.082h4.132c.537 0 .975-.437.975-.975v-1.064l3.737-3.738c.476-.475.748-1.133.746-1.806l-.015-6.445zm-1.558 7.424l-3.909 3.91c-.11.109-.171.258-.171.413v1.111h-3.743V14.35c0-.469.183-.91.514-1.24l.948-.95c.157-.156.374-.231.594-.206l.032.003.688.041c.372.037.735-.092 1-.357l1.532-1.533c.218-.218.573-.218.791 0 .218.218.218.573 0 .791l-2.185 2.185c-.228.228-.228.598 0 .827.229.228.599.228.827 0l2.185-2.185c.327-.327.506-.76.506-1.222 0-.434-.158-.843-.448-1.162V5.937c0-.18.074-.343.209-.461.135-.119.307-.17.484-.148.304.04.534.3.535.607l.014 6.446c.001.363-.146.72-.403.976zm-16.815 0c-.257-.257-.404-.613-.403-.976l.014-6.446c.001-.306.23-.567.535-.607.177-.023.35.03.484.147.135.119.209.282.209.462v3.405c-.29.319-.448.728-.448 1.162 0 .461.18.895.506 1.222l2.185 2.185c.228.228.598.228.827 0 .228-.229.228-.6 0-.827l-2.185-2.185c-.218-.218-.218-.573 0-.79.218-.219.573-.219.79 0l1.534 1.532c.264.265.627.394.999.357l.688-.041.032-.003c.22-.025.437.05.594.207l.948.948c.331.331.514.772.514 1.24v4.442H5.653V17.68c0-.155-.062-.304-.171-.414l-3.91-3.909z" transform="translate(9 9)"/>
        </g>
    </g>
</svg>
