<svg xmlns="http://www.w3.org/2000/svg" width="20" height="20" viewBox="0 0 20 20">
    <path fill="#B1DC03" fill-rule="evenodd" d="M14.42 6.827c.306.305.306.8 0 1.105l-5.24 5.241c-.306.305-.8.305-1.106 0L5.58 10.678c-.306-.305-.306-.8 0-1.105.305-.305.8-.305 1.104 0l1.943 1.943 4.689-4.69c.305-.304.8-.304 1.104 0zM20 10c0 5.527-4.473 10-10 10S0 15.527 0 10 4.473 0 10 0s10 4.473 10 10zm-1.563 0c0-4.664-3.774-8.438-8.437-8.438-4.664 0-8.438 3.775-8.438 8.438 0 4.664 3.775 8.438 8.438 8.438 4.664 0 8.438-3.775 8.438-8.438z"/>
</svg>
