<svg xmlns="http://www.w3.org/2000/svg" width="38" height="42" viewBox="0 0 38 42">
    <g fill="none" fill-rule="evenodd">
        <g fill="#B2DD00">
            <path d="M36.132 25.227c-.9 2.205-2.167 4.12-3.8 5.749-1.634 1.628-3.602 2.904-5.904 3.827-2.302.924-4.857 1.386-7.662 1.386-2.807 0-5.364-.462-7.674-1.386-2.312-.923-4.287-2.2-5.93-3.827-1.642-1.63-2.913-3.544-3.812-5.749C.45 23.024 0 20.642 0 18.082c0-2.56.45-4.942 1.35-7.145.899-2.203 2.17-4.115 3.812-5.736 1.643-1.62 3.618-2.892 5.93-3.816C13.402.462 15.959 0 18.766 0c2.805 0 5.36.466 7.662 1.397 2.302.932 4.27 2.208 5.904 3.829 1.633 1.62 2.9 3.532 3.8 5.735.9 2.204 1.35 4.578 1.35 7.121 0 2.56-.45 4.942-1.35 7.145zM32.311 40.712c0 .357-6.075.646-13.57.646S5.17 41.07 5.17 40.712c0-.357 6.076-.646 13.57-.646 7.496 0 13.571.29 13.571.646"/>
        </g>
        <path fill="#FFF" d="M12.616 16.104H9.834c-.46 0-.834.375-.834.835v5.88c0 .46.374.835.834.835h2.782c.46 0 .835-.375.834-.835v-5.88c0-.46-.374-.835-.834-.835zm.12 6.716c0 .066-.055.119-.12.119H9.834c-.065 0-.119-.054-.119-.12v-5.88c0-.066.054-.119.12-.119h2.78c.066 0 .12.053.12.119v5.88zm1.687-6.358v6.834c0 .197-.16.358-.357.358-.198 0-.358-.16-.358-.358v-6.834c0-.197.16-.358.358-.358.197 0 .357.16.357.358zm14.284 1.631c-.003-.442-.118-.804-.343-1.073-.008-.01-.015-.02-.022-.027l.023-.028c.227-.266.342-.622.342-1.058 0-.53-.243-.965-.685-1.222-.296-.173-.763-.209-1.103-.209h-4.171c-.316 0-.485-.037-.568-.066-.012-.113.035-.35.054-.445l.01-.045c.312-1.586.554-3.636-.07-4.394-.178-.218-.42-.334-.698-.334-1.112 0-1.393.674-1.783 1.606-.25.598-.562 1.343-1.179 2.291-1.118 1.72-2.499 2.536-3.222 2.87-.346.16-.551.54-.535.98v5.397c.014.417.395.85.74 1.012 1.935.91 5.218 1.032 8.174 1.032l1.003-.002c.828 0 1.452-.211 1.853-.629.338-.351.504-.838.482-1.408-.005-.117.07-.238.188-.301.544-.291.878-.8.942-1.43.032-.312-.025-.647-.17-.998l-.006-.016c.014-.012.039-.03.083-.054.7-.374.67-1.302.66-1.449zm-1 .82c-.592.316-.477.785-.4.971.097.237.14.464.12.655-.04.397-.232.69-.568.871-.36.192-.582.57-.566.96.01.258-.03.621-.282.884-.262.272-.711.41-1.338.41l-1.003.001c-1.889 0-5.818 0-7.87-.964-.149-.07-.326-.296-.329-.378v-5.397c-.005-.128.035-.278.12-.317.793-.367 2.305-1.26 3.522-3.13.653-1.002.991-1.813 1.24-2.405.394-.944.51-1.167 1.122-1.167.054 0 .097.012.147.073.328.398.296 1.891-.081 3.802l-.008.042c-.068.337-.194.964.269 1.201.218.112.528.167.945.167h4.17c.382 0 .649.055.743.11.222.13.33.328.33.605 0 .261-.057.462-.17.595-.284.332-.286.642-.007.977.116.138.178.355.178.628v.03c.001.005.039.603-.284.776zm-4.105-.526c.01.03.014.091-.071.154l-1.023.917-.007.007c-.04.03-.063.1-.048.149l.291 1.349c.02.06.015.108-.01.143-.038.053-.114.06-.193.006l-1.185-.643-.01-.006c-.04-.029-.118-.029-.156 0l-1.197.649c-.035.026-.07.037-.102.037-.037 0-.068-.016-.088-.043-.025-.035-.03-.084-.011-.143l.29-1.342v-.007c.017-.048-.006-.12-.048-.15l-1.03-.923c-.083-.062-.079-.123-.07-.154.012-.031.045-.083.15-.083l1.358-.112h.008c.05 0 .111-.044.127-.092l.566-1.294c.034-.1.093-.114.125-.114s.092.014.126.114l.563 1.287.003.007c.015.048.076.092.127.092l1.366.112c.106 0 .137.052.149.083z"/>
    </g>
</svg>
