<svg xmlns="http://www.w3.org/2000/svg" width="22" height="39" viewBox="0 0 22 39">
    <g fill="none" fill-rule="evenodd">
        <g fill="#41AA36">
            <g>
                <path d="M20.803 61.444c.252-1.361.624-2.774 1.151-4.212L7.25 64.436c.048 1.2.019 2.424-.075 3.685l13.628-6.677zm-.198 1.226L7.069 69.302c-.291 2.799-.879 5.78-1.651 9.034-.117.726-.106 1.881.282 2.214l.077.066.023.046c.1.087.842.616 3.812.441l11.36.035c.197-.023 1.326-.213 1.428-1.539-.038-.306-.27-2.122-.77-4.827-.204-.573-1.914-5.628-1.025-12.102zm1.915-6.844c.1-.218.213-.441.33-.674.804-1.585 1.71-3.375-.194-5.979h-5.243l-12.233.001c-.403.627-1.496 2.871.206 6.826 1.03 2.395 1.595 4.813 1.799 7.34l15.335-7.514zm-18.311-7C3.485 48.394 3 47.603 3 46.7v-.229C3 45.11 4.109 44 5.472 44h16.853c1.363 0 2.472 1.109 2.472 2.472v.23c0 .882-.465 1.659-1.164 2.096 2.054 2.998.9 5.279.123 6.812-.142.28-.277.545-.38.79-3.938 9.226-.81 17.976-.778 18.064l.023.082c.558 3.017.79 4.961.791 4.98l.006.045-.003.044c-.11 1.86-1.602 2.472-2.376 2.536l-.043.002-11.356-.036c-.431.025-.824.036-1.18.036-2.455 0-3.235-.547-3.48-.888-.903-.87-.599-2.88-.56-3.112l.007-.033c2.776-11.685 2.068-16.974.027-21.72-1.737-4.038-.808-6.571-.245-7.574zm13.407-.667h4.731c.794-.012 1.436-.662 1.436-1.458v-.229c0-.803-.654-1.458-1.458-1.458H5.472c-.804 0-1.458.655-1.458 1.458v.23c0 .803.654 1.457 1.458 1.457h12.144z" transform="translate(-1073 -2908) translate(1070 2864)"/>
            </g>
        </g>
    </g>
</svg>
