<svg xmlns="http://www.w3.org/2000/svg" width="43" height="39" viewBox="0 0 43 39">
    <defs>
        <linearGradient id="8hdpbca29a" x1="0%" x2="100%" y1="54.648%" y2="54.648%">
            <stop offset="0%" stop-color="#CAD80B"/>
            <stop offset="100%" stop-color="#6EBD06"/>
        </linearGradient>
    </defs>
    <g fill="none" fill-rule="evenodd">
        <g fill="url(#8hdpbca29a)" transform="translate(-355 -3305)">
            <g>
                <path d="M152.803 53.444c.252-1.361.624-2.774 1.151-4.212l-14.704 7.204c.048 1.2.019 2.424-.075 3.685l13.628-6.677zm-.198 1.226l-13.536 6.632c-.291 2.799-.879 5.78-1.651 9.034-.117.726-.106 1.881.282 2.214l.077.066.023.046c.1.087.842.616 3.812.441l11.36.035c.197-.023 1.326-.213 1.428-1.539-.038-.306-.27-2.122-.77-4.827-.204-.573-1.914-5.628-1.025-12.102zm1.915-6.844c.1-.218.213-.441.33-.674.804-1.585 1.71-3.375-.194-5.979h-5.243l-12.233.001c-.403.627-1.496 2.871.206 6.826 1.03 2.395 1.595 4.813 1.799 7.34l15.335-7.514zm-18.311-7c-.724-.432-1.209-1.223-1.209-2.125v-.229c0-1.363 1.109-2.472 2.472-2.472h16.853c1.363 0 2.472 1.109 2.472 2.472v.23c0 .882-.465 1.659-1.164 2.096 2.054 2.998.9 5.279.123 6.812-.142.28-.277.545-.38.79-3.938 9.226-.81 17.976-.778 18.064l.023.082c.558 3.017.79 4.961.791 4.98l.006.045-.003.044c-.11 1.86-1.602 2.472-2.376 2.536l-.043.002-11.356-.036c-.431.025-.824.036-1.18.036-2.455 0-3.235-.547-3.48-.888-.903-.87-.599-2.88-.56-3.112l.007-.033c2.776-11.685 2.068-16.974.027-21.72-1.737-4.038-.808-6.571-.245-7.574zm13.407-.667h4.731c.794-.012 1.436-.662 1.436-1.458v-.229c0-.803-.654-1.458-1.458-1.458h-16.853c-.804 0-1.458.655-1.458 1.458v.23c0 .803.654 1.457 1.458 1.457h12.144zm27.614 28.37v-1.005c-2.607.622-5.14.842-7.42.842-4.44 0-7.916-.835-9.105-1.161v.999c1.377.395 8.62 2.26 16.525.326zm0 .696c-2.607.622-5.14.842-7.42.842-4.44 0-7.916-.835-9.105-1.161v3.631c.764.23 3.512.926 8.26.884 1.82-.006 6.683-.143 8.265-.845v-3.351zm-17.202-.775v-1.688-1.701-1.702-1.704-1.7-1.702V56.552 54.85 53.15 51.448 45.5c-.006-.025-.009-.05-.009-.076 0-.91 4.003-1.648 8.94-1.648 4.492 0 8.21.61 8.845 1.406.063.061.103.147.103.242V72.784c0 .122-.066.234-.171.294-1.8 1.024-8.489 1.018-8.77 1.02l-.461.002c-5.47 0-8.14-.957-8.255-.999-.133-.049-.222-.175-.222-.317V68.46v-.011zm17.202-1.621v-1.007c-2.607.622-5.14.843-7.42.843-4.44 0-7.916-.835-9.105-1.162v1c1.376.394 8.62 2.26 16.525.326zm0-1.702v-1.006c-2.607.622-5.14.843-7.42.843-4.44 0-7.916-.836-9.105-1.162v1c1.376.394 8.62 2.259 16.525.325zm0-1.701V62.42c-2.607.622-5.14.842-7.42.842-4.44 0-7.916-.835-9.105-1.162v1c1.376.395 8.62 2.26 16.525.326zm0-1.701v-1.007c-2.607.622-5.14.843-7.42.843-4.44 0-7.916-.835-9.105-1.162v1c1.377.394 8.62 2.26 16.525.326zm0-1.702v-1.006c-2.607.622-5.14.842-7.42.842-4.44 0-7.916-.835-9.105-1.161v.999c1.377.395 8.62 2.26 16.525.326zm0-1.701v-1.006c-2.607.622-5.14.842-7.42.842-4.44 0-7.916-.835-9.105-1.162v1c1.377.395 8.62 2.26 16.525.326zm0-1.702v-1.006c-2.607.622-5.14.843-7.42.843-4.44 0-7.916-.836-9.105-1.162v1c1.377.394 8.62 2.26 16.525.325zm0-1.701v-1.006c-2.607.622-5.14.842-7.42.842-4.44 0-7.916-.835-9.105-1.161v.999c1.377.395 8.62 2.26 16.525.326zm0-1.701V52.21c-2.607.622-5.14.843-7.42.843-4.44 0-7.916-.835-9.105-1.162v1c1.377.394 8.62 2.26 16.525.326zm0-1.702v-5.465c-1.338.599-4.537 1.02-8.27 1.02-3.72 0-6.908-.418-8.255-1.013v5.132c1.377.395 8.62 2.26 16.525.326z" transform="translate(220 3269)"/>
            </g>
        </g>
    </g>
</svg>
