<svg xmlns="http://www.w3.org/2000/svg" width="38" height="42" viewBox="0 0 38 42">
    <g fill="none" fill-rule="evenodd">
        <path fill="#B2DD00" d="M36.132 25.227c-.9 2.205-2.167 4.12-3.8 5.749-1.634 1.628-3.602 2.904-5.904 3.827-2.302.924-4.857 1.386-7.662 1.386-2.807 0-5.364-.462-7.674-1.386-2.312-.923-4.287-2.2-5.93-3.827-1.642-1.63-2.913-3.544-3.812-5.749C.45 23.024 0 20.642 0 18.082c0-2.56.45-4.942 1.35-7.145.899-2.203 2.17-4.115 3.812-5.736 1.643-1.62 3.618-2.892 5.93-3.816C13.402.462 15.959 0 18.766 0c2.805 0 5.36.466 7.662 1.397 2.302.932 4.27 2.208 5.904 3.829 1.633 1.62 2.9 3.532 3.8 5.735.9 2.204 1.35 4.578 1.35 7.121 0 2.56-.45 4.942-1.35 7.145zM32.311 40.712c0 .357-6.075.646-13.57.646S5.17 41.07 5.17 40.712c0-.357 6.076-.646 13.57-.646 7.496 0 13.571.29 13.571.646"/>
        <g fill="#FFF" transform="translate(9 7)">
            <path d="M18.934 4.467L14.197 1.21C13.8.937 13.33.791 12.85.792h-2.832C9.664.297 9.094.002 8.485 0H7.291c-.456 0-.896.165-1.24.465l-1.39 1.217.522.596 1.39-1.216c.2-.174.454-.27.718-.27h1.194c.45.002.853.279 1.016.698l1.5 3.901-4.483 2.99-3.7 2.312h-.046v.028L.792 11.96v-5.12c0-.457.197-.891.541-1.192l3.284-2.874-.521-.596L.81 5.051C.296 5.502 0 6.154 0 6.839v5.834c0 .144.078.277.204.347.126.07.28.065.402-.01l.186-.117v.671c.001.94.696 1.736 1.627 1.864l-.026.724c-.014.386.09.766.3 1.09l.004.005 1.065 1.587.01-.006c.058.99.454 1.932 1.12 2.668l1.649 1.813c.263.288.635.453 1.026.453h2.73v-.792h-2.73c-.168 0-.327-.07-.44-.194L5.48 20.963c-1.07-1.183-1.227-2.932-.385-4.287l.306-.489L9.9 15.062l4.501 1.125.306.49c.842 1.354.685 3.103-.385 4.286l-1.648 1.813c-.113.124-.272.194-.44.194H11.09v.792h1.146c.39 0 .763-.165 1.026-.453l1.648-1.813c.646-.713 1.038-1.62 1.115-2.579l1.084-1.676c.21-.323.315-.703.3-1.089l-.025-.724c.931-.128 1.626-.923 1.627-1.864v-1.386c0-.412-.134-.812-.384-1.14.318-.267.539-.633.626-1.04l.258-1.202-.775-.166-.257 1.202c-.06.28-.23.526-.47.683h-.002c-.176.116-.382.178-.593.178h-.524l-1.615-3.552c-.211-.463-.6-.82-1.08-.993l-2.38-.85-1.428-3.714h2.464c.32 0 .634.097.898.279l4.737 3.257c.53.363.788 1.01.652 1.638l-.232 1.08.775.166.231-1.08c.204-.942-.182-1.913-.977-2.457zm-17.35 9.097v-1.166l1.188-.743v2.998h-.099c-.6 0-1.088-.487-1.089-1.089zm2.838 2.692c-.255.408-.44.856-.547 1.324l-.518-.771c-.12-.187-.18-.406-.172-.628l.025-.689 1.352.541-.14.223zm12.021.555l-.511.79c-.107-.476-.294-.93-.552-1.345l-.14-.223 1.353-.54.024.687c.009.224-.052.444-.174.631zm.97-5.326c.168 0 .334-.023.496-.067.198.203.31.476.309.76v1.386c0 .602-.488 1.089-1.09 1.09h-.098v-3.169h.383zm-2.86-4.016l1.685 3.706v3.606l-1.613.645-4.628-1.157c-.063-.016-.129-.016-.192 0l-4.628 1.157-1.613-.645v-3.62l3.379-2.112.01-.007 4.531-3.02 2.444.872c.277.1.503.307.625.575z"/>
            <rect width="1.188" height="1.98" x="6.337" y="11.089" rx=".594"/>
            <rect width="1.188" height="1.98" x="12.277" y="11.089" rx=".594"/>
            <path d="M12.564 18.203l.218-.762-2.772-.792c-.071-.02-.147-.02-.218 0l-2.772.792.218.762 2.663-.761 2.663.76zM7.238 20.183l2.663-.761 2.663.76.218-.76-2.772-.793c-.071-.02-.147-.02-.218 0l-2.772.792.218.762zM8.713 20.99H11.088999999999999V21.99H8.713z"/>
        </g>
    </g>
</svg>
