<svg xmlns="http://www.w3.org/2000/svg" width="20" height="20" viewBox="0 0 20 20">
    <g fill="none" fill-rule="evenodd">
        <g fill="#FFF" fill-rule="nonzero">
            <g>
                <path d="M8.48 11.52c-1.876-1.877-2.3-3.754-2.396-4.505-.026-.208.045-.417.194-.564l1.519-1.518c.223-.224.263-.572.095-.84L5.474.34C5.29.042 4.91-.065 4.596.092L.714 1.92c-.253.125-.401.393-.373.674.204 1.932 1.046 6.682 5.714 11.35 4.668 4.668 9.417 5.51 11.35 5.713.28.029.55-.12.674-.373l1.828-3.881c.156-.312.05-.692-.246-.877l-3.755-2.418c-.267-.167-.615-.128-.839.095l-1.518 1.519c-.147.149-.356.22-.564.194-.751-.096-2.628-.52-4.505-2.396z" transform="translate(-758 -2866) translate(758 2866)"/>
                <path d="M15.932 10.508c-.374 0-.678-.303-.678-.677-.003-2.807-2.278-5.082-5.085-5.085-.374 0-.677-.304-.677-.678 0-.375.303-.678.677-.678 3.556.004 6.437 2.885 6.441 6.44 0 .375-.303.678-.678.678z" transform="translate(-758 -2866) translate(758 2866)"/>
                <path d="M19.322 10.508c-.374 0-.678-.303-.678-.677-.005-4.679-3.796-8.47-8.475-8.475-.374 0-.677-.304-.677-.678 0-.374.303-.678.677-.678C15.596.006 19.994 4.404 20 9.83c0 .18-.071.353-.199.48-.127.127-.3.198-.479.198z" transform="translate(-758 -2866) translate(758 2866)"/>
            </g>
        </g>
    </g>
</svg>
