<svg xmlns="http://www.w3.org/2000/svg" width="20" height="15" viewBox="0 0 20 15">
    <g fill="none" fill-rule="evenodd">
        <g fill="#FFF" fill-rule="nonzero">
            <g>
                <path d="M9.289 8.328c.166.172.444.28.741.28.297.003.576-.11.734-.273L18.096.954c.49-.494.324-.894-.372-.894H2.389c-.696 0-.864.401-.375.896l7.275 7.372zM.881 12.276l4.99-5.102L.886 2.121C.396 1.626 0 1.788 0 2.484v9.434c0 .695.394.856.881.358z" transform="translate(-758 -2898) translate(758 2898)"/>
                <path d="M2.383 14.345h15.223c.696 0 .866-.404.38-.901L13.02 8.36l-1.108 1.117c-.519.52-1.21.751-1.884.752-.671 0-1.367-.233-1.893-.76L7.011 8.328l-5.006 5.117c-.487.497-.318.9.378.9zM19.99 11.916V2.608c0-.696-.398-.86-.889-.366L14.165 7.21l4.944 5.064c.486.498.88.338.88-.358z" transform="translate(-758 -2898) translate(758 2898)"/>
            </g>
        </g>
    </g>
</svg>
