<svg xmlns="http://www.w3.org/2000/svg" xmlns:xlink="http://www.w3.org/1999/xlink" width="20" height="20" viewBox="0 0 20 20">
    <defs>
        <path id="wtcl74lksa" d="M0 0L19.983 0 19.983 19.989 0 19.989z"/>
    </defs>
    <g fill="none" fill-rule="evenodd">
        <g>
            <g transform="translate(-758 -2758) translate(758 2758)">
                <mask id="dkgiq5jy1b" fill="#fff">
                    <use xlink:href="#wtcl74lksa"/>
                </mask>
                <path fill="#FEFEFE" d="M19.38 7.305l-1.446-.27v-1.97l1.446.413v1.827zm0 4.88l-1.446.103v-1.894l1.446.052v1.738zm0 4.23l-1.446.35v-3.848l1.446-.155v3.653zm-1.555-8.719l1.446.256v1.85l-1.446-.127V7.696zm-.171-.686l-1.446-.27V4.606l1.446.412V7.01zm0 2.668l-1.446-.075V7.469l1.446.227v1.982zm0 2.66l-1.446.077v-2.097l1.446.078v1.941zm.026 4.499l-1.472.35v-4.132l1.446-.104.026 3.886zM15.1 9.489l-1.76-.155V5.98l1.76.33v3.178zm0 3.903l-1.76.156v-3.476l1.76.096v3.224zm-3.125-7.489l-2.141-.445V2.795l2.141.64v2.468zm0 3.225l-2.141-.13V6.465l2.141.362v2.301zm0 3.451l-2.141.052v-2.507l2.141.077v2.378zM9.834 18.69v-5.06l2.115-.186-.006 4.73-2.11.516zm-.93-13.452l-2.678-.453V1.84l2.678.801v2.598zm0 3.734l-2.678-.148V5.877l2.678.407v2.688zm0 3.787H6.226v-2.687l2.678.05v2.637zm0 6.241l-2.573.646-.105-5.798 2.678-.131V19zM4.808 4.863l-1.627.723V3.08l1.627-1.008v2.792zm0 3.902l-1.627.336v-2.43l1.627-.62v2.714zm0 3.943l-1.627-.091v-2.519l1.627-.103v2.713zm0 3.892l-1.627-.428v-2.44l1.627.155V16.6zM2.078 6.103l-1.26.569v-2.12l1.26-.749v2.3zm0 3.153l-1.26.13V7.37l1.26-.414v2.3zm0 3.205l-1.26-.077V10.29l1.26-.129v2.3zm0 3.23l-1.26-.413v-2.067l1.26.18v2.3zM15.703 3.08s-2.058 1.046-2.73 1.24V2.406L5.596 0S.109 3.803 0 3.906v13.26l5.622 2.823 7.351-1.816 7.01-1.81V4.607l-4.28-1.527z" mask="url(#dkgiq5jy1b)"/>
            </g>
        </g>
    </g>
</svg>
