<svg xmlns="http://www.w3.org/2000/svg" width="50" height="50" viewBox="0 0 50 50">
    <g fill="none" fill-rule="evenodd">
        <g fill-rule="nonzero">
            <g>
                <g transform="translate(-1238 -2725) translate(1179 2686) translate(59 39)">
                    <ellipse cx="24.822" cy="25.043" fill="#007AB9" rx="24.822" ry="24.604"/>
                    <path fill="#F1F2F2" d="M39.653 27.022v10.144H33.72v-9.464c0-2.376-.857-3.999-3.005-3.999-1.64 0-2.613 1.093-3.043 2.15-.157.379-.197.904-.197 1.434v9.879h-5.933s.08-16.03 0-17.688h5.934v2.506c-.012.02-.03.04-.04.058h.04v-.058c.788-1.202 2.194-2.922 5.347-2.922 3.904 0 6.83 2.528 6.83 7.96zm-24.318-16.07c-2.03 0-3.358 1.32-3.358 3.055 0 1.698 1.29 3.057 3.28 3.057h.038c2.07 0 3.356-1.359 3.356-3.057-.04-1.735-1.286-3.056-3.316-3.056zM12.33 37.165h5.931V19.478H12.33v17.688z"/>
                </g>
            </g>
        </g>
    </g>
</svg>
