<svg xmlns="http://www.w3.org/2000/svg" width="38" height="42" viewBox="0 0 38 42">
    <g fill="none" fill-rule="evenodd">
        <g fill="#B2DD00">
            <path d="M36.132 25.227c-.9 2.205-2.167 4.12-3.8 5.749-1.634 1.628-3.602 2.904-5.904 3.827-2.302.924-4.857 1.386-7.662 1.386-2.807 0-5.364-.462-7.674-1.386-2.312-.923-4.287-2.2-5.93-3.827-1.642-1.63-2.913-3.544-3.812-5.749C.45 23.024 0 20.642 0 18.082c0-2.56.45-4.942 1.35-7.145.899-2.203 2.17-4.115 3.812-5.736 1.643-1.62 3.618-2.892 5.93-3.816C13.402.462 15.959 0 18.766 0c2.805 0 5.36.466 7.662 1.397 2.302.932 4.27 2.208 5.904 3.829 1.633 1.62 2.9 3.532 3.8 5.735.9 2.204 1.35 4.578 1.35 7.121 0 2.56-.45 4.942-1.35 7.145zM32.311 40.712c0 .357-6.075.646-13.57.646S5.17 41.07 5.17 40.712c0-.357 6.076-.646 13.57-.646 7.496 0 13.571.29 13.571.646"/>
        </g>
        <g fill="#FFF">
            <path d="M18.437 12.486c-.274 0-.497.223-.497.498V17.4c-.001.824-.669 1.492-1.493 1.493H2.487C1.665 18.893.997 18.225.996 17.4V4.436c.001-.823.669-1.491 1.493-1.492h4.417c.275 0 .497-.223.497-.498 0-.274-.222-.497-.497-.497H2.488C1.114 1.95.002 3.063 0 4.436v12.965c.002 1.373 1.114 2.486 2.488 2.488h13.96c1.372-.002 2.485-1.115 2.487-2.488v-4.417c0-.275-.223-.498-.498-.498z" transform="translate(10 9)"/>
            <path d="M18.738.669c-.875-.875-2.292-.875-3.166 0L6.696 9.545c-.061.06-.105.136-.128.219L5.4 13.978c-.048.172 0 .357.127.484s.312.176.485.128l4.214-1.167c.083-.023.158-.067.219-.128l8.876-8.876c.873-.875.873-2.292 0-3.166l-.584-.584zM7.78 9.868l7.264-7.264 2.343 2.342-7.265 7.265L7.78 9.868zm-.468.94l1.871 1.871-2.589.717.718-2.589zm11.306-7.093l-.528.528L15.747 1.9l.528-.528c.486-.485 1.273-.485 1.759 0l.584.584c.485.486.485 1.273 0 1.76z" transform="translate(10 9)"/>
        </g>
    </g>
</svg>
