<svg xmlns="http://www.w3.org/2000/svg" width="50" height="50" viewBox="0 0 50 50">
    <g fill="none" fill-rule="evenodd">
        <g fill-rule="nonzero">
            <g>
                <g>
                    <path fill="#3B5998" d="M24.942 0c13.775 0 24.941 11.168 24.941 24.942 0 13.775-11.166 24.941-24.941 24.941C11.166 49.883 0 38.717 0 24.942 0 11.168 11.166 0 24.942 0z" transform="translate(-1179 -2725) translate(1179 2686) translate(0 39)"/>
                    <path fill="#FFF" d="M27.978 17.17h3.215v-4.748h-3.779v.018c-4.578.162-5.517 2.735-5.6 5.438h-.009v2.371h-3.117v4.65h3.117v12.465h4.699V24.899h3.849l.743-4.65h-4.59v-1.432c0-.914.607-1.646 1.472-1.646z" transform="translate(-1179 -2725) translate(1179 2686) translate(0 39)"/>
                </g>
            </g>
        </g>
    </g>
</svg>
