<svg xmlns="http://www.w3.org/2000/svg" width="22" height="38" viewBox="0 0 22 38">
    <g fill="none" fill-rule="evenodd">
        <g fill="#41AA36">
            <g>
                <path d="M70.06 75.289v-1.231c-3.19.76-6.29 1.03-9.079 1.03-5.433 0-9.687-1.021-11.142-1.42v1.222c1.685.483 10.547 2.764 20.221.399zm0 .85c-3.19.761-6.29 1.031-9.08 1.031-5.432 0-9.686-1.022-11.141-1.421v4.443c.936.28 4.298 1.133 10.107 1.082 2.227-.008 8.178-.175 10.114-1.035v-4.1zm-21.049-.948v-2.065-2.082-2.082-2.084-2.082-2.082-2.082-2.082-2.082-2.081V47.109c-.007-.03-.011-.062-.011-.093C49 45.903 53.898 45 59.94 45c5.496 0 10.045.747 10.822 1.72.078.075.126.18.126.296v33.478c0 .149-.08.286-.21.36-2.203 1.253-10.386 1.246-10.73 1.248l-.565.003c-6.693 0-9.96-1.171-10.1-1.223-.163-.06-.272-.215-.272-.388v-5.29-.013zm21.05-1.984v-1.231c-3.191.761-6.291 1.03-9.08 1.03-5.433 0-9.687-1.021-11.142-1.42v1.222c1.684.483 10.547 2.765 20.221.4zm0-2.082v-1.23c-3.191.76-6.291 1.03-9.08 1.03-5.433 0-9.687-1.022-11.142-1.421v1.222c1.684.483 10.547 2.765 20.221.4zm0-2.082v-1.23c-3.191.76-6.291 1.03-9.08 1.03-5.433 0-9.687-1.022-11.142-1.421v1.222c1.684.484 10.547 2.765 20.221.4zm0-2.081V65.73c-3.191.76-6.291 1.03-9.08 1.03-5.433 0-9.687-1.022-11.142-1.421v1.222c1.685.484 10.547 2.766 20.221.4zm0-2.082v-1.231c-3.191.76-6.291 1.03-9.08 1.03-5.433 0-9.687-1.021-11.142-1.421v1.223c1.685.483 10.547 2.765 20.221.399zm0-2.082v-1.231c-3.191.76-6.291 1.03-9.08 1.03-5.433 0-9.687-1.021-11.142-1.42v1.222c1.685.483 10.547 2.766 20.221.399zm0-2.082v-1.231c-3.191.761-6.291 1.03-9.08 1.03-5.433 0-9.687-1.021-11.142-1.42v1.222c1.685.483 10.547 2.765 20.221.4zm0-2.082v-1.23c-3.191.76-6.291 1.03-9.08 1.03-5.433 0-9.687-1.022-11.142-1.422v1.223c1.685.484 10.547 2.766 20.221.4zm0-2.082v-1.23c-3.191.76-6.291 1.03-9.08 1.03-5.433 0-9.687-1.022-11.142-1.421v1.222c1.685.484 10.547 2.765 20.221.4zm0-2.081v-6.688c-1.639.733-5.553 1.249-10.121 1.249-4.55 0-8.452-.512-10.101-1.24v6.28c1.685.483 10.547 2.765 20.221.399z" transform="translate(-1119 -2909) translate(1070 2864)"/>
            </g>
        </g>
    </g>
</svg>
