<svg xmlns="http://www.w3.org/2000/svg" width="22" height="42" viewBox="0 0 22 42">
    <defs>
        <linearGradient id="i6ribbhina" x1="0%" x2="100%" y1="54.648%" y2="54.648%">
            <stop offset="0%" stop-color="#CAD80B"/>
            <stop offset="100%" stop-color="#6EBD06"/>
        </linearGradient>
    </defs>
    <g fill="none" fill-rule="evenodd">
        <g fill="url(#i6ribbhina)" transform="translate(-228 -3304)">
            <g>
                <path d="M18.185 74.747c.002-.058.005-.122.011-.194l.156-1.841c.02-.307.064-.61.084-.917l.057-.92c.036-.612.076-1.223.127-1.832l.079-1.834.049-.915.015-.916c.012-.61.04-1.221.042-1.831.022-2.442-.047-4.882-.184-7.326-.16-2.443-.378-4.886-.752-7.35 1.033 2.282 1.622 4.74 2.026 7.207.405 2.472.576 4.98.559 7.485-.008.626-.042 1.251-.064 1.877l-.045.937-.085.935-.192 1.866c-.09.619-.192 1.236-.297 1.852-.168 1.203-.483 2.382-.754 3.562 1.545-1.705 3.069-3.444 4.506-5.217.83-1.082 1.63-2.186 2.272-3.384.65-1.19 1.189-2.441 1.58-3.738.783-2.592.98-5.359.578-8.054-.203-1.348-.542-2.678-1.002-3.967-.462-1.281-1.044-2.553-1.765-3.683l-.016-.023-6.595-11.397c-.068.485-.301.926-.499 1.368-.21.44-.437.834-.667 1.263-.469.853-.979 1.6-1.48 2.435-.997 1.667-2.06 3.312-3.085 4.947-.999 1.641-1.865 3.37-2.492 5.17-.634 1.799-1 3.683-1.221 5.584-.21 1.883-.13 3.79.322 5.605.446 1.821 1.286 3.515 2.345 5.095.526.796 1.097 1.569 1.645 2.415.229.345.548.739.842 1.107l.917 1.12c.98 1.177 1.98 2.346 2.983 3.509zm.583.675c-.019.032-.048.088-.107.235l.315.005-.208-.24zm-.262.232c-.023-.23-.084-.293-.148-.339l-.304.332.452.007zM18.559 35c1.224 1.847 2.428 3.707 3.622 5.573 1.193 1.868 2.4 3.724 3.56 5.617l-.015-.024c.822 1.196 1.447 2.46 1.978 3.782.53 1.32.907 2.7 1.157 4.105.492 2.809.364 5.75-.437 8.508-.787 2.763-2.194 5.327-3.964 7.556-1.768 2.203-3.609 4.29-5.497 6.37l-.467.513-.455-.529c-1.27-1.477-2.528-2.958-3.77-4.463l-.925-1.14c-.307-.393-.604-.753-.912-1.218-.502-.789-1.088-1.58-1.617-2.415-1.08-1.66-1.969-3.512-2.418-5.48-.464-1.965-.5-4.008-.227-5.976.279-1.95.694-3.898 1.418-5.746.718-1.846 1.66-3.582 2.745-5.219 1.118-1.606 2.242-3.175 3.318-4.794.54-.807 1.07-1.62 1.579-2.445.257-.412.509-.826.745-1.25.224-.426.483-.848.582-1.325z" transform="translate(220 3269)"/>
            </g>
        </g>
    </g>
</svg>
