<svg xmlns="http://www.w3.org/2000/svg" width="44" height="44" viewBox="0 0 44 44">
    <g fill="none" fill-rule="evenodd">
        <g fill="#41AA36" fill-rule="nonzero">
            <g>
                <g>
                    <path d="M24.163 30.202l-3.436-5.727h-1.29v5.727H16.5V15.5h5.602c1.707 0 3.009.416 3.904 1.25.896.832 1.344 1.93 1.344 3.29 0 1.11-.31 2.04-.927 2.79-.618.75-1.51 1.25-2.676 1.5l3.665 5.872h-3.249zm-4.727-7.747h2.416c1.68 0 2.52-.742 2.52-2.228 0-.708-.205-1.26-.615-1.655-.41-.396-1.044-.594-1.905-.594h-2.416v4.477z" transform="translate(-1154 -2906) translate(1070 2864) translate(84.5 42.5)"/>
                    <path d="M21.5 43C9.626 43 0 33.374 0 21.5S9.626 0 21.5 0 43 9.626 43 21.5 33.374 43 21.5 43zm0-3C31.717 40 40 31.717 40 21.5S31.717 3 21.5 3 3 11.283 3 21.5 11.283 40 21.5 40z" transform="translate(-1154 -2906) translate(1070 2864) translate(84.5 42.5)"/>
                </g>
            </g>
        </g>
    </g>
</svg>
