<svg xmlns="http://www.w3.org/2000/svg" xmlns:xlink="http://www.w3.org/1999/xlink" width="132" height="46" viewBox="0 0 132 46">
    <defs>
        <linearGradient id="g0fpkoqd2c" x1="0%" x2="100%" y1="54.648%" y2="54.648%">
            <stop offset="0%" stop-color="#CAD80B"/>
            <stop offset="100%" stop-color="#6EBD06"/>
        </linearGradient>
        <path id="iuobjs5tja" d="M0 31.106L80.593 31.106 80.593 0.033 0 0.033z"/>
    </defs>
    <g fill="none" fill-rule="evenodd">
        <g>
            <g>
                <g>
                    <g>
                        <path fill="#000" d="M0 0.793L0 13.704 2.091 13.704 2.091 8.09 6.676 8.09 6.676 6.48 2.091 6.48 2.091 2.475 7.648 2.475 7.648 0.793z" transform="translate(-149 -27) translate(149 27) translate(51.262 6.389)"/>
                        <g transform="translate(-149 -27) translate(149 27) translate(51.262 6.389) translate(0 .137)">
                            <path fill="#000" d="M12.436 5.538c-.453.244-.816.619-1.092 1.125-.275.506-.412 1.125-.412 1.856 0 .744.137 1.366.412 1.865.276.5.64.872 1.092 1.116.452.244.947.366 1.485.366.538 0 1.033-.122 1.486-.366.452-.244.816-.616 1.091-1.116.276-.5.413-1.121.413-1.865 0-.731-.137-1.35-.413-1.856-.275-.506-.639-.88-1.091-1.125-.453-.244-.948-.366-1.486-.366s-1.033.122-1.485.366m4.127-1.554c.782.414 1.394 1.012 1.834 1.792.44.78.66 1.695.66 2.743 0 1.06-.22 1.981-.66 2.761-.44.78-1.052 1.378-1.834 1.793-.783.414-1.664.621-2.642.621s-1.855-.207-2.632-.621c-.776-.415-1.388-1.015-1.834-1.802-.446-.786-.67-1.703-.67-2.752 0-1.048.224-1.963.67-2.743.446-.78 1.058-1.378 1.834-1.792.777-.415 1.654-.622 2.632-.622.978 0 1.859.207 2.642.622M24.413 3.901c.635-.384 1.369-.576 2.2-.576v2.268h-.623c-.917 0-1.654.223-2.21.668-.556.445-.835 1.179-.835 2.203v5.102h-2.09V3.49h2.09v1.975c.343-.658.832-1.18 1.468-1.564M33.033 11.756v1.81H31.75c-1.076 0-1.892-.259-2.448-.777-.557-.518-.835-1.38-.835-2.588V5.264h-1.449V3.49h1.449V.984h2.11V3.49h2.439v1.774h-2.44v4.974c0 .573.107.97.321 1.189.214.219.59.329 1.128.329h1.01zM37.242 6.078c-.556.591-.834 1.405-.834 2.44 0 1.038.278 1.851.834 2.442.557.592 1.3.887 2.229.887.587 0 1.112-.137 1.577-.411.465-.274.832-.661 1.1-1.161.27-.5.404-1.085.404-1.756 0-.658-.135-1.24-.403-1.747-.27-.505-.636-.896-1.1-1.17-.466-.274-.991-.411-1.578-.411-.93 0-1.672.295-2.229.887m3.935-2.04c.648.452 1.106 1.05 1.375 1.793V3.49h2.091v10.076h-2.09v-2.34c-.27.743-.728 1.34-1.376 1.792-.649.45-1.431.676-2.348.676-.88 0-1.666-.207-2.357-.621-.69-.415-1.232-1.012-1.623-1.793-.392-.78-.587-1.7-.587-2.761 0-1.048.195-1.963.587-2.743.39-.78.932-1.378 1.623-1.792.69-.415 1.476-.622 2.357-.622.917 0 1.7.226 2.348.676"/>
                            <mask id="2a4hpsumtb" fill="#fff">
                                <use xlink:href="#iuobjs5tja"/>
                            </mask>
                            <path fill="#000" d="M46.936 13.566L49.027 13.566 49.027.033 46.936.033zM58.28 6.334c-.25-.445-.593-.774-1.027-.988-.434-.213-.908-.32-1.422-.32-.819 0-1.504.25-2.054.75-.55.5-.85 1.238-.899 2.213h5.741c.025-.659-.088-1.21-.339-1.655m2.375 2.606h-7.777c.037 1.036.324 1.804.863 2.304.537.5 1.204.75 1.999.75.697 0 1.287-.177 1.77-.53.483-.354.78-.824.89-1.409h2.237c-.135.707-.416 1.335-.844 1.884-.428.548-.984.978-1.669 1.29-.685.31-1.449.465-2.293.465-.978 0-1.843-.207-2.595-.621-.752-.415-1.342-1.012-1.77-1.793-.428-.78-.642-1.7-.642-2.761 0-1.048.214-1.963.642-2.743.428-.78 1.018-1.378 1.77-1.792.752-.415 1.617-.622 2.595-.622.99 0 1.856.204 2.596.613.74.408 1.308.969 1.706 1.682.397.713.596 1.509.596 2.386 0 .342-.025.64-.074.897M64.03 11.811L69.221 11.811 69.221 13.566 61.719 13.566 61.719 11.902 66.634 5.246 61.847 5.246 61.847 3.49 69.037 3.49 69.037 5.154zM73.192 6.078c-.557.591-.835 1.405-.835 2.44 0 1.038.278 1.851.835 2.442.556.592 1.299.887 2.228.887.587 0 1.113-.137 1.578-.411.464-.274.831-.661 1.1-1.161.269-.5.404-1.085.404-1.756 0-.658-.135-1.24-.404-1.747-.269-.505-.636-.896-1.1-1.17-.465-.274-.99-.411-1.578-.411-.929 0-1.672.295-2.228.887m3.934-2.04c.648.452 1.107 1.05 1.376 1.793V3.49h2.09v10.076h-2.09v-2.34c-.27.743-.728 1.34-1.376 1.792-.648.45-1.43.676-2.348.676-.88 0-1.666-.207-2.357-.621-.69-.415-1.232-1.012-1.623-1.793-.391-.78-.587-1.7-.587-2.761 0-1.048.196-1.963.587-2.743.391-.78.933-1.378 1.623-1.792.691-.415 1.477-.622 2.357-.622.917 0 1.7.226 2.348.676M9.573 23.069c-.66.713-.989 1.685-.989 2.917 0 1.231.33 2.203.989 2.917.658.713 1.534 1.07 2.626 1.07.688 0 1.309-.165 1.86-.495.553-.329.986-.795 1.3-1.399.315-.603.473-1.3.473-2.093 0-.793-.158-1.49-.472-2.094-.315-.604-.748-1.07-1.3-1.4-.552-.329-1.173-.493-1.861-.493-1.092 0-1.968.356-2.626 1.07m4.825-1.418c.695.525 1.166 1.22 1.416 2.085v-6.29h1.246v13.532h-1.246v-2.743c-.25.866-.721 1.56-1.416 2.085-.694.524-1.534.786-2.52.786-.878 0-1.664-.207-2.359-.622-.694-.414-1.235-1.008-1.62-1.783-.386-.774-.579-1.679-.579-2.715 0-1.049.193-1.96.579-2.735.385-.774.923-1.365 1.611-1.773.689-.409 1.478-.613 2.369-.613.985 0 1.825.262 2.52.786M21.618 22.31c-.522.268-.946.68-1.273 1.234-.327.555-.502 1.247-.525 2.076h6.873c.047-.817-.083-1.506-.392-2.067-.308-.56-.724-.975-1.246-1.243-.523-.268-1.092-.403-1.71-.403-.629 0-1.205.135-1.727.403m3.882 7.059c.593-.451.95-1.06 1.068-1.829h1.318c-.178 1.06-.67 1.92-1.478 2.578-.808.659-1.828.988-3.063.988-.926 0-1.748-.204-2.466-.613-.718-.408-1.279-.999-1.682-1.773-.404-.775-.606-1.686-.606-2.734 0-1.049.202-1.96.606-2.734.403-.775.964-1.366 1.682-1.774.718-.409 1.54-.613 2.466-.613.95 0 1.772.204 2.466.613.695.408 1.223.954 1.585 1.636.362.683.543 1.427.543 2.232 0 .341-.024.652-.07.932h-8.05c.012.841.182 1.545.508 2.112.327.567.75.985 1.273 1.253.523.269 1.087.403 1.692.403.878 0 1.614-.226 2.208-.677M29.471 30.978L30.735 30.978 30.735 17.445 29.471 17.445zM44.258 21.917c.706.737 1.06 1.82 1.06 3.246v5.815h-1.229v-5.724c0-1.085-.267-1.917-.801-2.496-.534-.58-1.264-.869-2.19-.869-.974 0-1.749.32-2.324.96-.576.64-.864 1.582-.864 2.826v5.303h-1.264v-9.985h1.264v2.45c.25-.853.7-1.505 1.354-1.956.652-.451 1.4-.677 2.243-.677 1.128 0 2.045.37 2.751 1.107M49.858 22.42c-.546.292-.985.74-1.318 1.344-.332.603-.498 1.344-.498 2.222 0 .877.166 1.615.498 2.212.333.598.772 1.043 1.318 1.335.546.293 1.14.44 1.78.44.63 0 1.214-.147 1.754-.44.54-.292.977-.737 1.31-1.335.331-.597.498-1.335.498-2.212 0-.878-.167-1.619-.499-2.222-.332-.604-.768-1.052-1.309-1.345-.54-.292-1.124-.438-1.753-.438-.642 0-1.235.146-1.781.438m4.265-.941c.73.408 1.302 1 1.718 1.773.415.775.623 1.686.623 2.735 0 1.048-.208 1.956-.623 2.724-.416.769-.988 1.36-1.718 1.774-.73.415-1.558.622-2.484.622-.926 0-1.757-.207-2.493-.622-.736-.414-1.315-1.008-1.736-1.783-.422-.774-.633-1.679-.633-2.715 0-1.049.211-1.96.633-2.735.421-.774 1-1.365 1.736-1.773.736-.409 1.567-.613 2.493-.613.926 0 1.753.204 2.484.613M60.63 21.395c.63-.39 1.395-.585 2.297-.585v1.39h-.41c-.937 0-1.715.26-2.332.777-.617.519-.926 1.363-.926 2.533v5.468h-1.264v-9.985h1.264v2.067c.285-.72.742-1.274 1.371-1.665" mask="url(#2a4hpsumtb)"/>
                            <path fill="#000" d="M68.287 29.844v1.134H67.13c-.938 0-1.639-.229-2.102-.686-.463-.457-.694-1.228-.694-2.313v-5.87h-1.478v-1.116h1.478V18.47h1.264v2.524h2.671v1.115H65.6v5.89c0 .706.124 1.191.373 1.453.25.262.689.393 1.318.393h.997zM72.186 22.31c-.522.268-.946.68-1.273 1.234-.326.555-.501 1.247-.525 2.076h6.873c.047-.817-.083-1.506-.392-2.067-.308-.56-.724-.975-1.246-1.243-.523-.268-1.092-.403-1.71-.403-.629 0-1.204.135-1.727.403m3.882 7.059c.593-.451.95-1.06 1.068-1.829h1.318c-.178 1.06-.67 1.92-1.478 2.578-.807.659-1.828.988-3.063.988-.925 0-1.748-.204-2.466-.613-.718-.408-1.279-.999-1.682-1.773-.404-.775-.606-1.686-.606-2.734 0-1.049.202-1.96.606-2.734.403-.775.964-1.366 1.682-1.774.718-.409 1.54-.613 2.466-.613.95 0 1.772.204 2.467.613.694.408 1.222.954 1.584 1.636.362.683.543 1.427.543 2.232 0 .341-.024.652-.07.932h-8.049c.012.841.18 1.545.507 2.112.327.567.751.985 1.274 1.253.522.269 1.086.403 1.691.403.878 0 1.614-.226 2.208-.677" mask="url(#2a4hpsumtb)"/>
                        </g>
                    </g>
                    <path fill="url(#g0fpkoqd2c)" d="M40.987 9.808c2.44 3.58 3.867 7.902 3.867 12.557 0 10.193-6.838 18.792-16.19 21.488-3.134-4.79-3.335-9.383-3.337-9.437l-.001-.023c-.415-7.033 5.067-11.452 5.121-11.495l.029-.023c6.523-5.602 9.317-10.131 10.51-13.067zm-24.27 11.448c-.04.05-.078.102-.119.152L.017 21.306c.093-1.982.444-3.897 1.022-5.713l21.48.132c-.972.892-1.643 1.466-1.761 1.566-.246.185-2.134 1.633-4.04 3.965zm-4.1 10.042c-.012.255-.07 1.879.279 4.151l-8.71-.06c-1.194-1.659-2.166-3.488-2.872-5.443l11.375.08c-.047.426-.071.85-.072 1.272zm16.774-9.704c-.422.336-6.198 5.09-5.744 12.887.013.357.238 4.892 3.287 9.797-.894.182-1.807.31-2.736.383-4.97-5.777-4.315-12.293-4.307-12.357l.006-.057-.001-.056c-.147-7.043 5.5-11.251 5.555-11.292l.03-.023c9.212-7.322 11.37-12.902 11.873-15.2.874.778 1.687 1.623 2.43 2.528-.189.59-.465 1.299-.87 2.117-2.195 4.44-6.387 8.579-9.523 11.273zm.287-13.425c-1.682 2.148-3.7 4.247-5.394 5.89l-22.637-.138c.882-2.156 2.092-4.143 3.568-5.902l24.463.15zM15.374 23.076c-1.177 1.775-1.985 3.586-2.41 5.377L.81 28.368c-.48-1.72-.76-3.525-.81-5.386l15.374.094zM32.906 2.59c-.35 1.21-1.074 2.549-2.003 3.91L6.764 6.354C10.807 2.423 16.331 0 22.423 0c3.787 0 7.354.937 10.483 2.59zM5.436 36.972l7.752.054c.442 2.037 1.215 4.395 2.554 6.696-4.047-1.257-7.603-3.627-10.306-6.75zm12.778-4.8c-.069.713-.5 6.74 3.884 12.555-1.356-.02-2.683-.158-3.97-.407-4.144-5.82-3.835-12.881-3.832-12.957l.002-.044c-.001-7.072 7.41-12.644 7.485-12.7l.042-.033c.44-.37 10.423-8.832 12.57-15.136.492.31.972.638 1.437.985l-.002.033-.004.077c0 .015-.032 1.523-1.435 4.107-2.362 4.352-6.71 8.33-9.945 10.904-.434.32-6.367 4.835-6.232 12.617z" transform="translate(-149 -27) translate(149 27)"/>
                </g>
            </g>
        </g>
    </g>
</svg>
