<svg xmlns="http://www.w3.org/2000/svg" width="90" height="90" viewBox="0 0 90 90">
    <defs>
        <linearGradient id="aumw6ce83a" x1="0%" x2="100%" y1="54.648%" y2="54.648%">
            <stop offset="0%" stop-color="#CAD80B"/>
            <stop offset="100%" stop-color="#6EBD06"/>
        </linearGradient>
    </defs>
    <g fill="none" fill-rule="evenodd">
        <g>
            <g>
                <g>
                    <g fill="#FFF">
                        <path d="M2.574 6.425c-.753.815-1.13 1.926-1.13 3.333 0 1.407.377 2.518 1.13 3.333.752.815 1.752 1.222 3 1.222.787 0 1.496-.188 2.126-.564.631-.376 1.126-.909 1.486-1.598.359-.69.539-1.487.539-2.393 0-.905-.18-1.703-.54-2.392-.359-.69-.854-1.223-1.485-1.599-.63-.376-1.34-.564-2.126-.564-1.248 0-2.248.407-3 1.222m5.513-1.619c.793.6 1.333 1.393 1.617 2.382V0h1.424v15.462H9.704v-3.134c-.284.99-.824 1.783-1.617 2.382-.793.6-1.753.899-2.879.899-1.004 0-1.902-.237-2.696-.71-.793-.474-1.41-1.153-1.85-2.038C.22 11.977 0 10.942 0 9.758 0 8.56.22 7.52.661 6.634c.44-.884 1.055-1.56 1.841-2.027.787-.466 1.689-.7 2.706-.7 1.126 0 2.086.3 2.879.899M16.337 5.558c-.597.307-1.082.777-1.455 1.41-.373.635-.573 1.425-.6 2.372h7.853c.054-.933-.095-1.72-.448-2.361-.353-.64-.827-1.114-1.424-1.42-.597-.307-1.248-.46-1.953-.46-.72 0-1.377.153-1.973.46m4.435 8.065c.678-.516 1.085-1.212 1.22-2.09h1.506c-.204 1.212-.767 2.194-1.689 2.946-.922.753-2.089 1.129-3.5 1.129-1.057 0-1.996-.233-2.817-.7-.82-.467-1.461-1.142-1.922-2.027-.462-.884-.692-1.926-.692-3.124 0-1.198.23-2.239.692-3.124.46-.884 1.101-1.56 1.922-2.026.82-.467 1.76-.7 2.818-.7 1.085 0 2.024.233 2.818.7.793.466 1.397 1.09 1.81 1.87.414.78.62 1.63.62 2.549 0 .39-.027.745-.08 1.066h-9.196c.013.96.206 1.765.58 2.413.372.648.857 1.125 1.454 1.431.597.307 1.241.46 1.933.46 1.004 0 1.844-.258 2.523-.773M25.308 15.463L26.753 15.463 26.753 0 25.308 0zM42.204 5.109c.807.843 1.211 2.079 1.211 3.709v6.645h-1.404v-6.54c0-1.24-.305-2.191-.915-2.853-.61-.661-1.445-.992-2.503-.992-1.112 0-1.997.365-2.655 1.097-.658.731-.986 1.807-.986 3.228v6.06h-1.445V4.053h1.445v2.8c.284-.974.8-1.72 1.546-2.235.746-.515 1.6-.773 2.563-.773 1.288 0 2.336.421 3.143 1.264M48.603 5.684c-.625.334-1.126.846-1.506 1.535-.38.69-.57 1.536-.57 2.54 0 1.002.19 1.845.57 2.527.38.683.881 1.192 1.506 1.526.624.334 1.302.501 2.034.501.719 0 1.387-.167 2.004-.501.617-.334 1.116-.843 1.495-1.526.38-.682.57-1.525.57-2.528 0-1.003-.19-1.849-.57-2.539-.38-.69-.878-1.201-1.495-1.535-.617-.335-1.285-.502-2.004-.502-.732 0-1.41.167-2.034.502m4.872-1.077c.834.467 1.489 1.143 1.963 2.027.475.885.712 1.926.712 3.124 0 1.198-.237 2.236-.712 3.114-.474.877-1.129 1.553-1.963 2.026-.834.474-1.78.71-2.838.71s-2.007-.236-2.848-.71c-.841-.473-1.502-1.152-1.984-2.037-.481-.884-.722-1.919-.722-3.103 0-1.198.24-2.239.722-3.124.482-.884 1.143-1.56 1.984-2.027.84-.466 1.79-.7 2.848-.7 1.058 0 2.004.234 2.838.7M60.911 4.513c.719-.445 1.594-.668 2.624-.668v1.588h-.467c-1.072 0-1.96.296-2.666.888-.705.592-1.057 1.557-1.057 2.894v6.247H57.9V4.054h1.445v2.36c.325-.82.847-1.455 1.566-1.9" transform="translate(-52 -4860) translate(52 4860) translate(4.219 73.828)"/>
                        <path d="M69.66 14.167v1.296h-1.323c-1.072 0-1.872-.262-2.4-.784-.53-.522-.794-1.403-.794-2.643V5.328h-1.689V4.054h1.689V1.17h1.444v2.884h3.052v1.274h-3.052v6.729c0 .808.143 1.361.427 1.66.285.3.787.45 1.506.45h1.14zM74.115 5.558c-.597.307-1.082.777-1.455 1.41-.373.635-.573 1.425-.6 2.372h7.853c.054-.933-.095-1.72-.448-2.361-.352-.64-.827-1.114-1.424-1.42-.597-.307-1.248-.46-1.953-.46-.72 0-1.377.153-1.973.46m4.435 8.065c.678-.516 1.085-1.212 1.22-2.09h1.506c-.204 1.212-.767 2.194-1.689 2.946-.922.753-2.089 1.129-3.5 1.129-1.057 0-1.996-.233-2.817-.7-.82-.467-1.461-1.142-1.922-2.027-.462-.884-.692-1.926-.692-3.124 0-1.198.23-2.239.692-3.124.46-.884 1.101-1.56 1.922-2.026.82-.467 1.76-.7 2.818-.7 1.085 0 2.024.233 2.818.7.793.466 1.397 1.09 1.81 1.87.414.78.62 1.63.62 2.549 0 .39-.027.745-.08 1.066H72.06c.013.96.206 1.765.58 2.413.373.648.857 1.125 1.454 1.431.597.307 1.241.46 1.933.46 1.004 0 1.844-.258 2.523-.773" transform="translate(-52 -4860) translate(52 4860) translate(4.219 73.828)"/>
                    </g>
                    <g fill="#FFF">
                        <path d="M0 .691L0 15.037 2.323 15.037 2.323 8.798 7.418 8.798 7.418 7.011 2.323 7.011 2.323 2.56 8.498 2.56 8.498.691zM13.817 6.116c-.502.271-.906.688-1.212 1.25-.306.562-.459 1.25-.459 2.062 0 .827.153 1.518.459 2.073.306.555.71.968 1.212 1.24.503.27 1.053.406 1.651.406.598 0 1.148-.135 1.65-.407.504-.27.908-.684 1.214-1.24.305-.554.458-1.245.458-2.072 0-.812-.153-1.5-.458-2.062-.306-.562-.71-.979-1.213-1.25-.503-.27-1.053-.406-1.65-.406-.599 0-1.149.135-1.652.406m4.586-1.727c.87.46 1.549 1.125 2.038 1.991.49.868.733 1.884.733 3.048 0 1.179-.244 2.202-.733 3.069-.49.867-1.169 1.53-2.038 1.991-.87.46-1.848.69-2.935.69s-2.062-.23-2.924-.69c-.863-.46-1.542-1.128-2.038-2.002-.496-.873-.744-1.893-.744-3.058 0-1.164.248-2.18.744-3.048.496-.866 1.175-1.53 2.038-1.991.862-.46 1.837-.69 2.924-.69s2.065.23 2.935.69M27.125 4.298c.707-.427 1.522-.64 2.446-.64v2.519h-.693c-1.019 0-1.838.247-2.456.742-.618.494-.927 1.31-.927 2.448v5.67h-2.323V3.84h2.323v2.195c.38-.732.924-1.31 1.63-1.737M36.704 13.025v2.012h-1.427c-1.196 0-2.103-.288-2.72-.864-.619-.576-.928-1.534-.928-2.875V5.81h-1.61v-1.97h1.61V1.056h2.344V3.84h2.71v1.971h-2.71v5.527c0 .637.118 1.077.356 1.321s.656.366 1.254.366h1.12zM41.38 6.716c-.618.657-.927 1.561-.927 2.712 0 1.152.309 2.056.927 2.713.618.657 1.444.986 2.477.986.652 0 1.236-.153 1.752-.458.516-.304.924-.734 1.223-1.29.299-.555.448-1.206.448-1.95 0-.732-.15-1.38-.448-1.941-.299-.562-.707-.996-1.223-1.3-.516-.305-1.1-.458-1.752-.458-1.033 0-1.859.329-2.477.986m4.372-2.266c.72.501 1.23 1.165 1.528 1.991v-2.6h2.324v11.195H47.28v-2.6c-.299.826-.808 1.49-1.528 1.99-.72.502-1.59.753-2.609.753-.978 0-1.851-.23-2.619-.691-.767-.46-1.369-1.124-1.803-1.991-.435-.867-.652-1.89-.652-3.069 0-1.165.217-2.18.652-3.048.434-.866 1.036-1.53 1.803-1.991.768-.46 1.641-.69 2.62-.69 1.018 0 1.888.25 2.608.75M52.151 15.037L54.474 15.037 54.474 0 52.151 0zM64.756 7c-.279-.494-.66-.86-1.142-1.097-.482-.237-1.008-.356-1.58-.356-.91 0-1.67.278-2.282.833-.611.556-.944 1.376-.998 2.46h6.379c.027-.733-.1-1.345-.377-1.84m2.639 2.896h-8.641c.04 1.151.36 2.005.958 2.56.597.556 1.338.833 2.221.833.774 0 1.43-.196 1.967-.59.536-.392.866-.914.988-1.564h2.486c-.15.786-.462 1.483-.937 2.093-.476.61-1.094 1.087-1.855 1.433-.76.345-1.61.518-2.547.518-1.087 0-2.048-.23-2.884-.691-.836-.46-1.491-1.124-1.966-1.991-.476-.867-.714-1.89-.714-3.069 0-1.165.238-2.18.714-3.048.475-.866 1.13-1.53 1.966-1.991.836-.46 1.797-.69 2.884-.69 1.1 0 2.061.226 2.884.68.822.454 1.453 1.077 1.895 1.87.441.792.662 1.676.662 2.65 0 .38-.027.712-.081.997M71.145 13.086L76.912 13.086 76.912 15.036 68.577 15.036 68.577 13.187 74.038 5.791 68.719 5.791 68.719 3.84 76.708 3.84 76.708 5.69zM81.324 6.716c-.618.657-.927 1.561-.927 2.712 0 1.152.309 2.056.927 2.713.618.657 1.444.986 2.476.986.653 0 1.237-.153 1.753-.458.516-.304.924-.734 1.223-1.29.298-.555.448-1.206.448-1.95 0-.732-.15-1.38-.448-1.941-.3-.562-.707-.996-1.223-1.3-.516-.305-1.1-.458-1.753-.458-1.032 0-1.858.329-2.476.986m4.372-2.266c.72.501 1.229 1.165 1.528 1.991v-2.6h2.324v11.195h-2.324v-2.6c-.299.826-.808 1.49-1.528 1.99-.72.502-1.59.753-2.609.753-.978 0-1.851-.23-2.619-.691-.767-.46-1.369-1.124-1.803-1.991-.435-.867-.653-1.89-.653-3.069 0-1.165.218-2.18.653-3.048.434-.866 1.036-1.53 1.803-1.991.768-.46 1.64-.69 2.62-.69 1.018 0 1.887.25 2.608.75" transform="translate(-52 -4860) translate(52 4860) translate(0 54.844)"/>
                    </g>
                    <path fill="url(#aumw6ce83a)" d="M64.75 10.278c2.558 3.752 4.054 8.282 4.054 13.16 0 10.682-7.167 19.694-16.967 22.52-3.285-5.02-3.496-9.833-3.498-9.89v-.025c-.436-7.37 5.31-12 5.366-12.046l.03-.024c6.836-5.871 9.764-10.617 11.015-13.695zM39.317 22.276c-.043.053-.083.106-.125.16l-17.377-.107c.097-2.078.465-4.085 1.07-5.987l22.512.138c-1.02.934-1.722 1.536-1.846 1.64-.258.194-2.237 1.712-4.234 4.156zM35.02 32.8c-.012.268-.073 1.969.293 4.35l-9.129-.063c-1.25-1.738-2.269-3.655-3.01-5.703l11.922.082c-.05.447-.075.892-.076 1.334zM52.6 22.63c-.443.353-6.496 5.335-6.02 13.505.014.374.249 5.128 3.445 10.268-.937.19-1.894.326-2.867.402-5.209-6.055-4.522-12.883-4.515-12.951l.007-.059-.001-.06c-.154-7.38 5.763-11.79 5.821-11.833l.031-.024c9.655-7.674 11.916-13.521 12.444-15.93.916.816 1.768 1.701 2.546 2.65-.198.618-.487 1.361-.911 2.219-2.3 4.652-6.694 8.99-9.98 11.814zm.3-14.069c-1.763 2.25-3.878 4.45-5.653 6.173l-23.723-.145c.924-2.259 2.192-4.342 3.739-6.185l25.637.157zM37.91 24.184c-1.233 1.86-2.08 3.758-2.525 5.634l-12.739-.088c-.503-1.804-.795-3.694-.848-5.645l16.112.099zm18.373-21.47c-.366 1.27-1.125 2.672-2.099 4.099l-25.297-.155C33.122 2.538 38.91 0 45.296 0c3.969 0 7.707.982 10.986 2.714zM27.493 38.746l8.125.057c.463 2.135 1.273 4.606 2.677 7.017-4.242-1.317-7.968-3.8-10.802-7.074zm13.392-5.03c-.072.747-.524 7.064 4.07 13.157-1.42-.02-2.811-.166-4.16-.426-4.343-6.1-4.02-13.5-4.016-13.578l.002-.047c-.001-7.411 7.766-13.251 7.844-13.309l.044-.035c.462-.389 10.923-9.255 13.173-15.862.516.325 1.019.668 1.507 1.031l-.003.035-.004.08c0 .016-.033 1.597-1.503 4.305-2.476 4.562-7.032 8.73-10.423 11.427-.455.335-6.672 5.068-6.53 13.223z" transform="translate(-52 -4860) translate(52 4860)"/>
                </g>
            </g>
        </g>
    </g>
</svg>
