<svg xmlns="http://www.w3.org/2000/svg" width="128.323" height="40.27" viewBox="0 0 128.323 40.27">
    <defs>
        <style>
            .cls-3{fill:#fff}
        </style>
    </defs>
    <g id="Grupo_19" data-name="Grupo 19" transform="translate(7284.342 -5656.35)">
        <path id="Exclusión_1" fill="#fff" stroke="rgba(0,0,0,0)" stroke-miterlimit="10" d="M18.669 38.171a18.624 18.624 0 0 1-7.244-1.39A18.258 18.258 0 0 1 5.4 32.6a19.3 19.3 0 0 1-4.046-6.1A18.872 18.872 0 0 1 0 19.337a20.166 20.166 0 0 1 1.533-7.877 18.057 18.057 0 0 1 4.05-6.141 19.581 19.581 0 0 1 5.834-3.9A17.252 17.252 0 0 1 18.211 0a18.212 18.212 0 0 1 7.018 1.353 19.091 19.091 0 0 1 6.023 4.058 18.01 18.01 0 0 1 4.15 6.133 20.341 20.341 0 0 1-.489 15.92l.429.289c1.342.906 2.311 1.56 2.911 1.994 1.215.914 1.831 1.79 1.831 2.6a6.967 6.967 0 0 1-1.533 3.47c-1.007 1.484-2.046 2.237-3.089 2.237a6.328 6.328 0 0 1-2.951-1.37c-.148-.084-.6-.381-1.419-.959-.754-.532-1.353-.909-1.79-1.185l-.04-.025a16.979 16.979 0 0 1-10.593 3.656zm-.3-29.245a9.125 9.125 0 0 0-6.5 2.808 9.887 9.887 0 0 0-2.883 7.329 9.6 9.6 0 0 0 2.914 7.305 9.023 9.023 0 0 0 13.018.068 9.675 9.675 0 0 0 2.882-7.327 9.9 9.9 0 0 0-2.906-7.4 9.29 9.29 0 0 0-6.523-2.783z" data-name="Exclusión 1" transform="translate(-7283.842 5657.948)"/>
        <path id="Path" fill="#e4278e" d="M8.351 7.534A2.116 2.116 0 0 1 7 8.561a8.654 8.654 0 0 1-2.562.3 8.654 8.654 0 0 1-2.562-.3 2.1 2.1 0 0 1-1.35-1.073 4.257 4.257 0 0 1-.457-1.347A16.014 16.014 0 0 1 0 4.406a16.014 16.014 0 0 1 .069-1.735A3.777 3.777 0 0 1 .5 1.37C.984.457 2.288 0 4.461 0Q7.653 0 8.3 1.37a3.846 3.846 0 0 1 .48 1.347 16.307 16.307 0 0 1 .069 1.735 16.5 16.5 0 0 1-.064 1.758 3.879 3.879 0 0 1-.434 1.324z" transform="translate(-7238.428 5656.35)"/>
        <path id="Path-2" d="M0 4.429a16.5 16.5 0 0 1 .069-1.758A4.146 4.146 0 0 1 .5 1.324C.984.457 2.288 0 4.461 0a5.42 5.42 0 0 1 3.455.868 2.827 2.827 0 0 1 .915 2.169c.023.342.046.822.046 1.461v17.715a15.726 15.726 0 0 1-.069 1.735 3.846 3.846 0 0 1-.48 1.347c-.435.868-1.739 1.324-3.912 1.324Q1.224 26.62.5 25.25a4.671 4.671 0 0 1-.435-1.324A16.122 16.122 0 0 1 0 22.145z" class="cls-3" data-name="Path" transform="translate(-7238.428 5668.838)"/>
        <path id="Path-3" d="M14.871.023A10.727 10.727 0 0 1 23.313 3.9a13.888 13.888 0 0 1 3.363 9.429v8.9a15.726 15.726 0 0 1-.069 1.735 4.338 4.338 0 0 1-.435 1.3c-.48.913-1.785 1.37-3.958 1.37-2.4 0-3.8-.616-4.164-1.872a8.176 8.176 0 0 1-.3-2.58v-8.9a4.287 4.287 0 0 0-1.19-3.242 4.382 4.382 0 0 0-3.2-1.164 4.5 4.5 0 0 0-3.249 1.21 4.26 4.26 0 0 0-1.235 3.2v8.949a15.726 15.726 0 0 1-.069 1.735 3.512 3.512 0 0 1-.48 1.3q-.652 1.37-3.912 1.37-3.192 0-3.912-1.37a4.79 4.79 0 0 1-.435-1.347A16.5 16.5 0 0 1 0 22.168V4.246a15.631 15.631 0 0 1 .069-1.689 3.512 3.512 0 0 1 .48-1.3C1.03.411 2.334 0 4.461 0 6.52 0 7.8.388 8.259 1.164a3.94 3.94 0 0 1 .5 2.078 5.123 5.123 0 0 1 .915-1 10.338 10.338 0 0 1 1.376-1.078A6.825 6.825 0 0 1 14.871.023z" class="cls-3" data-name="Path" transform="translate(-7222.963 5668.792)"/>
        <path id="Path-4" d="M16.77 18.036l-3.294-.205v6.986a3.324 3.324 0 0 0 .435 1.963 1.862 1.862 0 0 0 1.624.616c.8 0 1.4.023 1.83.068a3.576 3.576 0 0 1 1.35.479c.778.434 1.167 1.575 1.167 3.4 0 2.123-.48 3.424-1.418 3.9a4.814 4.814 0 0 1-1.35.434 15.732 15.732 0 0 1-1.693.068c-3.523 0-6.177-.8-8.007-2.374s-2.745-4.269-2.745-8.036v-7.482a14.558 14.558 0 0 1-2.082.16 2.322 2.322 0 0 1-1.853-.868A4.62 4.62 0 0 1 0 14.2a13.158 13.158 0 0 1 .252-3.014A2.765 2.765 0 0 1 .961 9.84 3.16 3.16 0 0 1 3 9.178l1.67.205V4.178a15.25 15.25 0 0 1 .069-1.712 3.029 3.029 0 0 1 .48-1.21C5.651.411 6.955 0 9.128 0c2.288 0 3.661.616 4.118 1.872a9.831 9.831 0 0 1 .252 2.58v4.954q2.231-.206 3.363-.206a15.922 15.922 0 0 1 1.716.068 3.865 3.865 0 0 1 1.35.479c.869.434 1.327 1.735 1.327 3.9q0 3.185-1.373 3.9a4.814 4.814 0 0 1-1.35.434c-.388.009-.983.055-1.761.055z" class="cls-3" data-name="Path" transform="translate(-7191.46 5659.751)"/>
        <path id="Path-5" fill="#00c9d9" d="M8.351 7.534A2.116 2.116 0 0 1 7 8.561a8.654 8.654 0 0 1-2.562.3 8.654 8.654 0 0 1-2.562-.3 2.1 2.1 0 0 1-1.35-1.073 4.257 4.257 0 0 1-.457-1.347A16.014 16.014 0 0 1 0 4.406a16.014 16.014 0 0 1 .069-1.735A3.777 3.777 0 0 1 .5 1.37C.984.457 2.288 0 4.461 0Q7.653 0 8.3 1.37a3.846 3.846 0 0 1 .48 1.347 16.307 16.307 0 0 1 .069 1.735 16.5 16.5 0 0 1-.064 1.758 3.439 3.439 0 0 1-.434 1.324z" data-name="Path" transform="translate(-7164.896 5656.35)"/>
        <path id="Path-6" d="M0 4.429a16.5 16.5 0 0 1 .069-1.758A4.146 4.146 0 0 1 .5 1.324C.984.457 2.288 0 4.461 0a5.42 5.42 0 0 1 3.455.868 2.827 2.827 0 0 1 .915 2.169c.023.342.046.822.046 1.461v17.715a15.726 15.726 0 0 1-.069 1.735 3.846 3.846 0 0 1-.48 1.347c-.435.868-1.739 1.324-3.912 1.324Q1.224 26.62.5 25.25a4.671 4.671 0 0 1-.435-1.324A16.122 16.122 0 0 1 0 22.145z" class="cls-3" data-name="Path" transform="translate(-7164.896 5668.838)"/>
    </g>
</svg>
