<svg xmlns="http://www.w3.org/2000/svg" width="254.644" height="171.028" viewBox="0 0 254.644 171.028">
    <defs>
        <style>
            .cls-3{fill:#fff}.cls-2{fill:#e4278e}.cls-4{fill:#00c9d9}.cls-5{fill:#e9dd42}
        </style>
    </defs>
    <g id="Grupo_1" data-name="Grupo 1" transform="translate(7315.482 -5613.628)">
        <path id="Exclusión_1" fill="#fff" stroke="rgba(0,0,0,0)" stroke-miterlimit="10" d="M24.359 49.805a24.3 24.3 0 0 1-9.452-1.813 23.822 23.822 0 0 1-7.862-5.455 25.184 25.184 0 0 1-5.28-7.961A24.624 24.624 0 0 1 0 25.231a26.313 26.313 0 0 1 2-10.278 23.561 23.561 0 0 1 5.284-8.012A25.549 25.549 0 0 1 14.9 1.847 22.51 22.51 0 0 1 23.762 0a23.763 23.763 0 0 1 9.157 1.765 24.91 24.91 0 0 1 7.858 5.295 23.5 23.5 0 0 1 5.415 8 26.541 26.541 0 0 1-.638 20.773l.559.378c1.751 1.182 3.015 2.035 3.8 2.6 1.585 1.193 2.389 2.335 2.389 3.4 0 1.091-.673 2.614-2 4.528-1.314 1.937-2.67 2.919-4.03 2.919-.833 0-2.128-.6-3.85-1.787-.193-.11-.781-.5-1.851-1.251-.984-.694-1.765-1.186-2.335-1.546l-.052-.033a22.154 22.154 0 0 1-13.825 4.764zm-.389-38.159a11.906 11.906 0 0 0-8.478 3.664 12.9 12.9 0 0 0-3.761 9.562 12.527 12.527 0 0 0 3.791 9.528 11.774 11.774 0 0 0 16.986.089 12.624 12.624 0 0 0 3.761-9.561 12.922 12.922 0 0 0-3.791-9.651 12.122 12.122 0 0 0-8.508-3.631z" data-name="Exclusión 1" transform="translate(-7227.617 5734.351)"/>
        <path id="Path" d="M10.9 9.83a2.76 2.76 0 0 1-1.761 1.34 11.292 11.292 0 0 1-3.343.387 11.292 11.292 0 0 1-3.343-.387 2.743 2.743 0 0 1-1.766-1.4 5.554 5.554 0 0 1-.6-1.757A20.9 20.9 0 0 1 0 5.749a20.9 20.9 0 0 1 .09-2.264 4.928 4.928 0 0 1 .567-1.7C1.284.6 2.985 0 5.821 0q4.164 0 5.015 1.787a5.019 5.019 0 0 1 .627 1.757 21.278 21.278 0 0 1 .09 2.264 21.533 21.533 0 0 1-.09 2.294A5.062 5.062 0 0 1 10.9 9.83z" class="cls-2" transform="translate(-7168.362 5732.266)"/>
        <path id="Path-2" d="M0 5.779a21.533 21.533 0 0 1 .09-2.294 5.41 5.41 0 0 1 .567-1.757C1.284.6 2.985 0 5.821 0c2.119 0 3.612.387 4.508 1.132a3.688 3.688 0 0 1 1.194 2.83c.03.447.06 1.072.06 1.906v23.116a20.52 20.52 0 0 1-.09 2.264A5.019 5.019 0 0 1 10.866 33c-.567 1.132-2.269 1.728-5.1 1.728q-4.164 0-5.1-1.787a6.094 6.094 0 0 1-.576-1.723A21.035 21.035 0 0 1 0 28.894z" class="cls-3" data-name="Path" transform="translate(-7168.362 5748.56)"/>
        <path id="Path-3" d="M19.4.03a14 14 0 0 1 11.018 5.064 18.121 18.121 0 0 1 4.388 12.3v11.619a20.519 20.519 0 0 1-.09 2.264 5.66 5.66 0 0 1-.567 1.7c-.627 1.192-2.328 1.787-5.164 1.787-3.134 0-4.955-.8-5.433-2.443a10.668 10.668 0 0 1-.388-3.366V17.337a5.594 5.594 0 0 0-1.552-4.23 5.717 5.717 0 0 0-4.179-1.519 5.871 5.871 0 0 0-4.239 1.579 5.559 5.559 0 0 0-1.612 4.17v11.676a20.52 20.52 0 0 1-.09 2.264 4.582 4.582 0 0 1-.627 1.7q-.851 1.787-5.1 1.787-4.164 0-5.1-1.787a6.249 6.249 0 0 1-.575-1.759A21.533 21.533 0 0 1 0 28.924V5.541a20.4 20.4 0 0 1 .09-2.2 4.582 4.582 0 0 1 .627-1.7C1.343.536 3.045 0 5.821 0c2.687 0 4.358.506 4.955 1.519a5.141 5.141 0 0 1 .657 2.711 6.684 6.684 0 0 1 1.194-1.311 13.489 13.489 0 0 1 1.791-1.4A8.9 8.9 0 0 1 19.4.03z" class="cls-3" data-name="Path" transform="translate(-7148.183 5748.5)"/>
        <path id="Path-4" d="M21.881 23.532l-4.3-.268v9.115a4.337 4.337 0 0 0 .567 2.562 2.43 2.43 0 0 0 2.119.8c1.045 0 1.821.03 2.388.089a4.666 4.666 0 0 1 1.761.626c1.015.566 1.522 2.055 1.522 4.438 0 2.77-.627 4.468-1.851 5.094a6.282 6.282 0 0 1-1.761.566 20.525 20.525 0 0 1-2.209.089c-4.6 0-8.06-1.043-10.448-3.1S6.09 37.98 6.09 33.065v-9.77a19 19 0 0 1-2.716.209 3.03 3.03 0 0 1-2.419-1.133A6.028 6.028 0 0 1 0 18.528 17.169 17.169 0 0 1 .328 14.6a3.607 3.607 0 0 1 .925-1.757 4.123 4.123 0 0 1 2.657-.864l2.179.268V5.451a19.9 19.9 0 0 1 .09-2.234 3.952 3.952 0 0 1 .627-1.579C7.373.536 9.075 0 11.911 0c2.985 0 4.776.8 5.373 2.443a12.827 12.827 0 0 1 .328 3.366v6.464Q20.523 12 22 12a20.774 20.774 0 0 1 2.239.089 5.043 5.043 0 0 1 1.761.63c1.134.566 1.731 2.264 1.731 5.094q0 4.155-1.791 5.094a6.282 6.282 0 0 1-1.761.566c-.507 0-1.279.059-2.298.059z" class="cls-3" data-name="Path" transform="translate(-7107.078 5736.705)"/>
        <path id="Path-5" d="M10.9 9.83a2.76 2.76 0 0 1-1.761 1.34 11.292 11.292 0 0 1-3.343.387 11.292 11.292 0 0 1-3.343-.387 2.743 2.743 0 0 1-1.766-1.4 5.554 5.554 0 0 1-.6-1.757A20.9 20.9 0 0 1 0 5.749a20.9 20.9 0 0 1 .09-2.264 4.928 4.928 0 0 1 .567-1.7C1.284.6 2.985 0 5.821 0q4.164 0 5.015 1.787a5.019 5.019 0 0 1 .627 1.757 21.278 21.278 0 0 1 .09 2.264 21.533 21.533 0 0 1-.09 2.294A4.487 4.487 0 0 1 10.9 9.83z" class="cls-4" data-name="Path" transform="translate(-7072.42 5732.266)"/>
        <path id="Path-6" d="M0 5.779a21.533 21.533 0 0 1 .09-2.294 5.41 5.41 0 0 1 .567-1.757C1.284.6 2.985 0 5.821 0c2.119 0 3.612.387 4.508 1.132a3.688 3.688 0 0 1 1.194 2.83c.03.447.06 1.072.06 1.906v23.116a20.52 20.52 0 0 1-.09 2.264A5.019 5.019 0 0 1 10.866 33c-.567 1.132-2.269 1.728-5.1 1.728q-4.164 0-5.1-1.787a6.094 6.094 0 0 1-.576-1.723A21.035 21.035 0 0 1 0 28.894z" class="cls-3" data-name="Path" transform="translate(-7072.42 5748.56)"/>
        <g id="Group" transform="translate(-7315.482 5613.628)">
            <path id="Path-7" d="M5.863 19.741S-8.256 1.63 7.326.052 53.178 33.5 58.85 45.776c5.7 12.273 12.508 15.192 18.388 9.473 6.12-5.958 17.911-1.281 21.045 3.277 2.955 4.319 2.448 11.439 10.985 17.6 9.493 6.881 21.374 14.626 27.7 22.43-11.761-8.877-21.881-17.724-34.15-22.7-12.269-4.945-17.1-1.132-21.971 4.349-4.866 5.451-8.746 20.256-20.985 26.481s-13.791 5.987-13.791 5.987c-.06 6.315 5.1 23.5 7.97 29.43 2.836 7.6 5.881 14.388 6.239 21.209.328 6.285-5.821 2.681-8.687-2.651-2.836-5.332-11.761-33.958-9.015-47.78 2.749-13.781 10.63-35.44 18.69-43.9 0 0-6.836 5.57-13.314 19.034 0 0-1.463-7.03-1.075-7.238.388-.179-4.687.655-6.328-1.638s-1.791-6.017 3.134-7.387c4.955-1.37 17.851-4.528 19.821-5.153s3.791-1.281-2.9-8.966-11.582-13.792-27.1-24.6S5.863 19.741 5.863 19.741z" class="cls-3" data-name="Path"/>
            <g id="Group-2" data-name="Group" transform="translate(25.25 60.382)">
                <path id="Path-8" d="M35.54 4.518S7.868-3.167 1.121 1.509c-4.925 3.9 7.493 9.473 15.523 7.953A83.782 83.782 0 0 0 35.54 4.518z" class="cls-4" data-name="Path"/>
                <path id="Path-9" d="M0 3.575L10.448 0s6.687 3.6 5.791 12.511z" class="cls-4" data-name="Path" transform="translate(24.256 48.932)"/>
            </g>
            <g id="Group-3" data-name="Group" transform="translate(12.711 43.87)">
                <path id="Path-10" d="M.5 0a114.033 114.033 0 0 1 47.37 18.8S31 14.626 19.989 14.983-2.549 9.026.5 0z" class="cls-5" data-name="Path"/>
                <path id="Path-11" d="M0 0s18.209 7.655 18.508 15.847c.328 8.162-3.313 5.213-6.3.953C9.224 12.511 0 0 0 0z" class="cls-5" data-name="Path" transform="translate(36.616 71.282)"/>
            </g>
            <g id="Group-4" data-name="Group" transform="translate(3.907 21.946)">
                <path id="Path-12" d="M56.017 37.652S34.315 9.919 2.344 0c0 0-8.149 5.958 5.94 19.541a146.231 146.231 0 0 1 47.733 18.111z" class="cls-2" data-name="Path"/>
                <path id="Path-13" d="M0 0s14.806 21.12 16 23.83 2.806 6.524-.836 9.89c-3.642 3.4-5.463-3.753-6.776-7.268C7.045 22.937.6 7.328 0 0z" class="cls-2" data-name="Path" transform="translate(44.554 95.202)"/>
            </g>
        </g>
    </g>
</svg>
