<svg xmlns="http://www.w3.org/2000/svg" width="40.047" height="40.047" viewBox="0 0 40.047 40.047">
    <defs>
        <style>
            .cls-1{fill:#fff}
        </style>
    </defs>
    <g id="whatsapp">
        <path id="Trazado_44" d="M34.359 5.688A19.292 19.292 0 0 0 20.627 0a19.424 19.424 0 0 0-17.26 28.327L.1 37.653a1.8 1.8 0 0 0 1.692 2.394 1.814 1.814 0 0 0 .6-.1l9.328-3.267A19.422 19.422 0 0 0 34.359 5.688zM32.7 31.492a17.078 17.078 0 0 1-20.086 3 1.809 1.809 0 0 0-1.443-.112L2.7 37.35l2.966-8.472a1.809 1.809 0 0 0-.112-1.443A17.073 17.073 0 0 1 20.625 2.349 17.072 17.072 0 0 1 32.7 31.492zm0 0" class="cls-1" data-name="Trazado 44"/>
        <path id="Trazado_45" d="M145.23 126.041a2.294 2.294 0 0 0-3.24 0l-.977.977a14.223 14.223 0 0 1-5.712-5.712l.977-.977a2.293 2.293 0 0 0 0-3.241l-2.633-2.633a2.294 2.294 0 0 0-3.241 0l-2.106 2.106c-1.207 1.207-1.267 3.281-.17 5.841a25.637 25.637 0 0 0 11.788 11.788 8.5 8.5 0 0 0 3.279.781 3.492 3.492 0 0 0 2.562-.951l2.106-2.107a2.291 2.291 0 0 0 0-3.24zm-1.13 6.319c-.344.344-1.4.465-3.255-.328a23.351 23.351 0 0 1-10.554-10.554c-.793-1.851-.673-2.911-.328-3.255l2.066-2.066 2.552 2.552-1.223 1.223a1.793 1.793 0 0 0-.332 2.087 16.57 16.57 0 0 0 7.274 7.281 1.792 1.792 0 0 0 2.087-.332l1.223-1.223 2.552 2.552zm0 0" class="cls-1" data-name="Trazado 45" transform="translate(-117.387 -104.885)"/>
    </g>
</svg>
